<svg width="40" height="40" viewBox="0 0 40 40" fill="none" xmlns="http://www.w3.org/2000/svg">
<path d="M20 0C8.96 0 0 8.96 0 20C0 31.04 8.96 40 20 40C31.04 40 40 31.04 40 20C40 8.96 31.04 0 20 0ZM20 36C11.18 36 4 28.82 4 20C4 11.18 11.18 4 20 4C28.82 4 36 11.18 36 20C36 28.82 28.82 36 20 36Z" fill="#33C0FB"/>
<path d="M29.9996 16H20.8196L21.9796 9.18V8.78C21.9596 8.26 21.7396 7.76 21.3796 7.38L19.9996 6L10.7996 16C10.2596 16.52 9.95964 17.24 9.99964 18V28C9.99964 30.2 11.7996 32 13.9996 32H24.9996C26.1196 32.06 27.1596 31.42 27.5996 30.4L31.7996 20.6C31.9596 20.3 32.0396 19.94 31.9996 19.6V18C31.9996 16.9 31.0996 16 29.9996 16Z" fill="#33C0FB"/>
</svg>
