<svg width="40" height="40" viewBox="0 0 40 40" fill="none" xmlns="http://www.w3.org/2000/svg">
<path d="M35.5998 10.4H24.7998V4.40005C24.7998 2.40805 23.1918 0.800049 21.1998 0.800049H18.7998C16.8078 0.800049 15.1998 2.40805 15.1998 4.40005V10.4H4.3998C2.4078 10.4 0.799805 12.008 0.799805 14V35.6001C0.799805 37.592 2.4078 39.2001 4.3998 39.2001H35.5998C37.5918 39.2001 39.1998 37.592 39.1998 35.6001V14C39.1998 12.008 37.5918 10.4 35.5998 10.4ZM18.7998 4.40005H21.1998V14H18.7998V4.40005ZM35.5998 35.6001H4.3998V14H15.1998C15.1998 15.992 16.8078 17.6 18.7998 17.6H21.1998C23.1918 17.6 24.7998 15.992 24.7998 14H35.5998V35.6001Z" fill="#33C0FB"/>
<path d="M31.9998 20H24.7998V23.6H31.9998V20Z" fill="#33C0FB"/>
<path d="M31.9998 26H24.7998V29.6H31.9998V26Z" fill="#33C0FB"/>
<path d="M14 26C15.6569 26 17 24.6569 17 23C17 21.3431 15.6569 20 14 20C12.3431 20 11 21.3431 11 23C11 24.6569 12.3431 26 14 26Z" fill="#33C0FB"/>
<path d="M18.176 28.0641C16.88 27.5121 15.488 27.2001 14 27.2001C12.512 27.2001 11.12 27.5121 9.824 28.0641C8.72 28.5441 8 29.6241 8 30.8481V32.0001H20V30.8481C20 29.6241 19.28 28.5441 18.176 28.0641Z" fill="#33C0FB"/>
</svg>
