<svg width="44" height="38" viewBox="0 0 44 38" fill="none" xmlns="http://www.w3.org/2000/svg">
<path d="M22 6.42883C19.8628 6.42883 9.80568 8.03169 9.45996 18.6231C14.8657 17.366 19.0771 13.0603 20.1457 7.59169C21.8114 11.206 26.3057 16.3917 34.0686 15.7631C32.6543 10.3888 27.8143 6.42883 22 6.42883Z" fill="#33C0FB"/>
<path d="M14.1423 23.7144C15.4441 23.7144 16.4995 22.6591 16.4995 21.3573C16.4995 20.0555 15.4441 19.0001 14.1423 19.0001C12.8405 19.0001 11.7852 20.0555 11.7852 21.3573C11.7852 22.6591 12.8405 23.7144 14.1423 23.7144Z" fill="#33C0FB"/>
<path d="M29.8571 23.7144C31.159 23.7144 32.2143 22.6591 32.2143 21.3573C32.2143 20.0555 31.159 19.0001 29.8571 19.0001C28.5553 19.0001 27.5 20.0555 27.5 21.3573C27.5 22.6591 28.5553 23.7144 29.8571 23.7144Z" fill="#33C0FB"/>
<path d="M40.8572 19.0001C40.8572 8.59725 32.4029 0.142944 22 0.142944C11.5972 0.142944 3.14286 8.59725 3.14286 19.0001C1.41429 19.0001 0 20.4144 0 22.143V28.4287C0 30.1573 1.41429 31.5716 3.14286 31.5716H6.28573V19.0001C6.28573 10.3258 13.3257 3.28581 22 3.28581C30.6744 3.28581 37.7144 10.3258 37.7144 19.0001V34.7144H18.8572V37.8573H37.7144C39.4429 37.8573 40.8572 36.443 40.8572 34.7144V31.5716C42.5858 31.5716 44.0001 30.1573 44.0001 28.4287V22.143C44.0001 20.4144 42.5858 19.0001 40.8572 19.0001Z" fill="#33C0FB"/>
</svg>
