<svg width="28" height="27" viewBox="0 0 28 27" fill="none" xmlns="http://www.w3.org/2000/svg">
<path d="M17.9759 9.79228C17.9759 9.03828 17.7365 8.60742 17.2698 8.60742C16.803 8.60742 16.5637 9.06215 16.5637 9.8521C16.5637 10.6779 16.7911 11.1445 17.2458 11.1445C17.7365 11.1445 17.9759 10.6538 17.9759 9.79228Z" fill="white"/>
<path d="M11.8612 6.35611C11.8612 5.53035 11.6338 5.06354 11.179 5.06354C10.6883 5.06354 10.449 5.55422 10.449 6.41593C10.449 7.16993 10.6883 7.60079 11.1551 7.60079C11.6218 7.60079 11.8612 7.14591 11.8612 6.35611Z" fill="white"/>
<path d="M27.6295 2.76733C27.5975 2.7365 27.5595 2.71269 27.5178 2.69744C27.4761 2.68218 27.4317 2.67581 27.3874 2.67874C26.3447 2.68089 25.3017 2.68073 24.2585 2.67829C24.2186 2.67406 24.1782 2.67865 24.1403 2.69175C24.1023 2.70485 24.0677 2.72613 24.0389 2.75408C24.01 2.78203 23.9877 2.81597 23.9735 2.85351C23.9592 2.89104 23.9534 2.93125 23.9564 2.97129C23.9406 3.49731 23.9234 3.9222 23.9024 4.30846C23.8926 4.35496 23.8944 4.40313 23.9074 4.44881C23.9205 4.49449 23.9445 4.53629 23.9774 4.57061C24.0102 4.60493 24.0509 4.63072 24.096 4.64576C24.1411 4.6608 24.1891 4.66463 24.236 4.65692C24.559 4.65018 24.8885 4.65134 25.2071 4.65225L25.4938 4.65302C25.5039 4.65302 25.5147 4.65302 25.5254 4.6531L25.5229 4.67918C25.5208 4.70252 25.5196 4.72608 25.5183 4.74964C25.5176 4.78455 25.5141 4.81934 25.5078 4.85368C25.4623 5.05312 25.4182 5.25294 25.3741 5.45276C25.2658 5.94406 25.1538 6.45195 25.0198 6.94294C24.7363 7.96113 24.2925 8.92769 23.7051 9.80631C22.9856 10.9461 21.9578 11.8588 20.741 12.4386C20.6909 12.4623 20.6403 12.4842 20.5886 12.5057C20.6305 12.4101 20.6727 12.3146 20.7153 12.2192C20.8385 11.9421 20.9659 11.6554 21.0791 11.367C21.4032 10.5355 21.6617 9.67982 21.8521 8.80789C21.9692 8.28538 22.1013 7.66817 22.1933 7.05203C22.3146 6.24066 22.3917 5.57119 22.4361 4.94495C22.4809 4.31121 22.5056 3.66676 22.5296 3.04358C22.5411 2.74224 22.5527 2.44098 22.5664 2.14002C22.5756 2.05661 22.5529 1.97281 22.503 1.90539C22.453 1.83797 22.3794 1.79191 22.2969 1.77641C22.1543 1.73931 22.0123 1.69922 21.8703 1.65922C21.5917 1.58072 21.3035 1.49964 21.0128 1.44111C19.973 1.23272 19.059 1.06442 18.2187 0.926641C17.02 0.738591 15.8085 0.643396 14.5951 0.641902C13.3626 0.615103 12.1297 0.672433 10.9049 0.813495L10.5309 0.8594C10.0587 0.916853 9.57051 0.976142 9.09299 1.06159C8.46935 1.17306 7.84219 1.31382 7.23568 1.44992L6.98154 1.50691C6.76734 1.55472 6.55405 1.61317 6.34781 1.66963C6.22013 1.70467 6.09244 1.73963 5.96423 1.77229C5.87396 1.78529 5.79237 1.83313 5.73694 1.90556C5.68152 1.97799 5.65666 2.06924 5.66771 2.15977C5.67827 2.34827 5.68079 2.5422 5.68324 2.72978C5.68492 2.86014 5.68669 2.9905 5.69089 3.12078C5.72858 4.48944 5.85567 5.85417 6.07133 7.20626C6.22977 8.26285 6.47411 9.30476 6.80192 10.3216C6.97451 10.8393 7.17471 11.3558 7.36826 11.8552L7.45999 12.0921C7.51652 12.2388 7.58162 12.3823 7.64642 12.5218C7.55147 12.4826 7.45976 12.4432 7.36933 12.399C6.10859 11.7848 5.10428 10.8368 4.29894 9.50085C3.4637 8.11534 2.93171 6.52892 2.67267 4.6515C2.86959 4.65349 3.06658 4.6528 3.26357 4.65219C3.51182 4.65127 3.75992 4.65043 4.00801 4.65502C4.05494 4.66019 4.10244 4.65529 4.14733 4.64064C4.19223 4.626 4.23348 4.60195 4.26834 4.5701C4.29801 4.53421 4.31989 4.49253 4.33257 4.44773C4.34525 4.40292 4.34847 4.35596 4.34201 4.30984C4.31661 3.89933 4.29802 3.46756 4.28509 2.98996C4.28846 2.94738 4.28229 2.90457 4.26703 2.86467C4.25177 2.82477 4.2278 2.78878 4.19688 2.75931C4.16596 2.72983 4.12885 2.70763 4.08827 2.6943C4.04768 2.68097 4.00463 2.67687 3.96226 2.68227C3.7668 2.68587 3.57103 2.6851 3.37518 2.68434L3.12969 2.68372L2.59755 2.68388C2.0003 2.68426 1.40328 2.68355 0.806493 2.68174C0.761879 2.67754 0.71689 2.68335 0.674804 2.69874C0.632719 2.71413 0.594598 2.73872 0.563219 2.77071C0.537609 2.80434 0.519656 2.84316 0.510617 2.88446C0.501578 2.92575 0.501671 2.96852 0.51089 3.00978C0.521295 3.07756 0.527414 3.14595 0.533688 3.21434C0.538278 3.26453 0.542867 3.31479 0.548835 3.36459C0.578594 3.61299 0.605064 3.86185 0.631456 4.11079C0.69128 4.67354 0.75317 5.25556 0.853621 5.82389C1.03366 6.83488 1.32136 7.82371 1.71182 8.77348C2.26332 10.1853 3.09771 11.4694 4.16369 12.5468C4.82097 13.2012 5.58087 13.7437 6.41329 14.1528C7.23662 14.5631 8.12613 14.8243 9.04058 14.9243C9.13369 14.9376 9.21783 14.987 9.27483 15.0618L9.43464 15.2304C9.67095 15.4802 9.91522 15.7386 10.1799 15.971C10.9137 16.6191 11.7891 17.0865 12.7359 17.3358C12.7857 17.3488 12.8368 17.3622 12.864 17.3722C12.8667 17.4003 12.8667 17.4512 12.8667 17.4972L12.8666 18.2863C12.8665 19.1194 12.8664 19.9526 12.8672 20.7929C12.8672 20.8249 12.8672 20.8597 12.8661 20.8847C12.8405 20.8905 12.8041 20.897 12.7727 20.9026C11.6678 21.1007 10.6192 21.5369 9.69964 22.1807C9.62313 22.2275 9.56059 22.294 9.51852 22.3732C9.47646 22.4524 9.45642 22.5415 9.4605 22.6311C9.46692 23.7468 9.468 24.8783 9.46348 25.9936C9.46007 26.0367 9.46551 26.0801 9.47947 26.1211C9.49342 26.162 9.5156 26.1997 9.54464 26.2318C9.58006 26.2623 9.62125 26.2854 9.66577 26.2996C9.71028 26.3139 9.75721 26.319 9.80375 26.3147C10.4621 26.3152 11.1203 26.3165 11.7786 26.3186C12.4926 26.3206 13.2067 26.3219 13.9208 26.3227H14.0551C14.7106 26.3227 15.366 26.3214 16.0215 26.3189L17.2477 26.3157C17.6574 26.3152 18.0665 26.3152 18.4761 26.3197C18.5226 26.3256 18.5698 26.3208 18.614 26.3055C18.6583 26.2902 18.6984 26.2648 18.7313 26.2315C18.7642 26.1981 18.7889 26.1576 18.8035 26.1131C18.8182 26.0686 18.8223 26.0214 18.8157 25.975C18.8108 24.9593 18.8099 23.8763 18.8127 22.5666C18.8175 22.4941 18.8015 22.4218 18.7666 22.358C18.7318 22.2942 18.6796 22.2416 18.616 22.2064C18.4845 22.1306 18.3542 22.0525 18.2237 21.9744C17.9414 21.8053 17.6494 21.6303 17.3472 21.481C16.759 21.1943 16.1301 21 15.4827 20.9049C15.46 20.9015 15.4377 20.8959 15.4161 20.888C15.411 20.8674 15.41 20.8461 15.4131 20.8251C15.4238 20.6754 15.4222 20.5259 15.4206 20.3811C15.42 20.3293 15.4195 20.2776 15.4195 20.2258C15.4195 19.2801 15.4192 18.3344 15.4185 17.3888C15.4185 17.3746 15.4185 17.3571 15.4192 17.3438L15.4223 17.343C15.9654 17.2206 16.4876 17.0187 16.9719 16.7441C17.7435 16.2947 18.4316 15.7152 19.0057 15.0313C19.0502 14.9834 19.1075 14.9492 19.1709 14.9331C19.3397 14.8949 19.51 14.8629 19.6803 14.8309C19.8987 14.7898 20.1244 14.7473 20.3455 14.6919C21.1866 14.4761 21.9845 14.1177 22.7047 13.6324C24.051 12.738 25.1167 11.5234 25.9626 9.91901C26.3906 9.12443 26.7256 8.28315 26.9609 7.41182C27.183 6.56832 27.3502 5.80407 27.472 5.07547C27.5487 4.61669 27.5896 4.14727 27.6292 3.69339C27.6489 3.46657 27.6687 3.23974 27.6928 3.01352C27.7001 2.97034 27.6982 2.9261 27.6873 2.88369C27.6764 2.84128 27.6567 2.80163 27.6295 2.76733ZM12.9383 11.9946H11.4783L15.5114 4.21558H16.9476L12.9383 11.9946ZM9.15648 6.32182C9.15648 5.01732 9.7789 4.05998 11.191 4.05998C12.5314 4.05998 13.1657 4.99345 13.1657 6.29795C13.1657 7.60246 12.5673 8.61962 11.1552 8.61962C9.76689 8.61962 9.15648 7.60246 9.15648 6.32182V6.32182ZM15.2601 9.91219C15.2601 8.60768 15.8585 7.59037 17.2706 7.59037C18.6589 7.59037 19.2692 8.60768 19.2692 9.88816C19.2692 11.1927 18.647 12.1502 17.2347 12.1502C15.8944 12.1502 15.2601 11.2167 15.2601 9.91219L15.2601 9.91219Z" fill="white"/>
</svg>
