<svg width="24" height="21" viewBox="0 0 24 21" fill="none" xmlns="http://www.w3.org/2000/svg">
<path d="M8.9947 4.1362L4.75171 0.0438232L4.41606 0.18583L4.45479 0.271895C4.45479 0.271895 4.14495 0.844227 4.02877 0.891562C4.02877 0.891562 1.61465 1.88991 1.16711 2.09647C0.719575 2.30302 0.92613 2.52679 1.06814 2.91839L0.982072 2.95712L1.1585 3.38744L1.8126 3.10773C1.8126 3.10773 2.28165 4.68271 2.31608 4.76448C1.0251 5.46591 0.706665 6.01672 0.706665 6.01672L5.99535 18.5391C5.99535 18.5391 7.11849 19.1158 9.59716 18.0744C11.6627 17.2137 12.3814 15.9228 12.3814 15.9228L7.20455 3.68006L8.7279 4.67841L12.6439 13.8658C12.6137 14.1627 12.6137 14.4511 12.7041 14.4166L13.0656 14.2617L13.2377 13.9691L9.18404 4.37288L8.9947 4.1362ZM10.9785 13.4011C10.1398 14.0481 9.22319 14.5873 8.25025 15.0062C7.27348 15.4454 6.23632 15.7355 5.17343 15.8668L4.79044 14.9632C5.84539 14.8134 6.87572 14.524 7.85434 14.1025C8.82913 13.6927 9.7486 13.1621 10.5912 12.5232L10.9785 13.4011Z" fill="#EBA43F"/>
<path d="M22.5082 9.15168L21.7631 8.55067C21.7461 8.53691 21.7257 8.52787 21.7041 8.52444C21.6825 8.521 21.6603 8.52329 21.6398 8.53109C21.6194 8.53888 21.6013 8.5519 21.5874 8.56885C21.5735 8.5858 21.5644 8.60609 21.5608 8.6277L21.4116 9.5258C21.4087 9.54345 21.402 9.56027 21.3921 9.57513C21.3821 9.58998 21.3691 9.60253 21.3538 9.61193L20.7539 9.98224C20.7386 9.99168 20.7255 10.0043 20.7156 10.0193C20.7056 10.0342 20.6989 10.0511 20.696 10.0689L20.536 11.0581C20.5334 11.0745 20.5275 11.0901 20.5188 11.1042C20.5101 11.1182 20.4987 11.1304 20.4852 11.14C20.4718 11.1497 20.4566 11.1565 20.4404 11.1603C20.4243 11.164 20.4076 11.1645 20.3913 11.1617L20.3865 11.1609C20.3701 11.1581 20.3535 11.1586 20.3373 11.1623C20.3212 11.166 20.306 11.1729 20.2926 11.1825C20.2791 11.1922 20.2677 11.2044 20.259 11.2184C20.2503 11.2325 20.2444 11.2481 20.2418 11.2644L20.0885 12.2115C20.0858 12.2278 20.0864 12.2445 20.0903 12.2606C20.0941 12.2767 20.1011 12.2919 20.1108 12.3052C20.1205 12.3186 20.1328 12.3299 20.1469 12.3385C20.161 12.3471 20.1766 12.3529 20.193 12.3554C20.2093 12.358 20.225 12.3637 20.2391 12.3723C20.2533 12.381 20.2655 12.3923 20.2752 12.4057C20.285 12.4191 20.2919 12.4343 20.2957 12.4504C20.2995 12.4665 20.3001 12.4832 20.2975 12.4996L20.1314 13.5133C20.126 13.5459 20.1081 13.575 20.0814 13.5944C20.0547 13.6138 20.0214 13.6219 19.9888 13.617L19.9819 13.6159C19.9656 13.6134 19.9489 13.6142 19.9329 13.6181C19.9169 13.6221 19.9018 13.6292 19.8885 13.639C19.8752 13.6488 19.864 13.6611 19.8555 13.6753C19.847 13.6895 19.8414 13.7051 19.839 13.7215L19.6992 14.6658C19.6944 14.6985 19.7027 14.7319 19.7223 14.7585C19.7419 14.7851 19.7713 14.8029 19.804 14.808L19.8058 14.8083C19.8222 14.8108 19.8378 14.8166 19.852 14.8252C19.8661 14.8338 19.8783 14.8451 19.8881 14.8585C19.8978 14.8719 19.9047 14.8871 19.9086 14.9032C19.9124 14.9193 19.913 14.936 19.9103 14.9523L19.7483 15.9488C19.743 15.9814 19.725 16.0106 19.6983 16.03C19.6716 16.0494 19.6383 16.0576 19.6056 16.0526L19.5942 16.0508C19.5621 16.0459 19.5293 16.0537 19.5028 16.0725C19.4763 16.0913 19.4581 16.1197 19.4521 16.1516L19.2742 17.0995C19.2711 17.1159 19.2713 17.1326 19.2748 17.1489C19.2783 17.1651 19.2849 17.1805 19.2944 17.1942C19.3039 17.2078 19.316 17.2194 19.33 17.2284C19.344 17.2373 19.3597 17.2433 19.3761 17.2462L19.3776 17.2464C19.4102 17.2521 19.4393 17.2704 19.4585 17.2973C19.4776 17.3243 19.4854 17.3578 19.48 17.3904L19.7291 19.4996C19.7371 19.5202 19.7394 19.5426 19.7359 19.5644L19.6036 20.3917C19.6027 20.4427 19.5896 20.4928 19.5653 20.5376C19.5411 20.5825 19.5064 20.6209 19.4642 20.6496C19.4221 20.6782 19.3736 20.6964 19.323 20.7024C19.2723 20.7085 19.221 20.7023 19.1732 20.6844L14.728 19.9313C14.6766 19.9314 14.626 19.9189 14.5806 19.895C14.5352 19.871 14.4963 19.8363 14.4675 19.7938C14.4386 19.7513 14.4206 19.7024 14.415 19.6514C14.4094 19.6003 14.4164 19.5487 14.4354 19.501L14.5678 18.6734C14.5712 18.6517 14.5803 18.6314 14.5941 18.6143L15.4867 16.6951C15.4894 16.6788 15.4952 16.6631 15.5039 16.6491C15.5126 16.635 15.524 16.6228 15.5375 16.6132C15.5509 16.6036 15.5661 16.5967 15.5823 16.593C15.5984 16.5893 15.6151 16.5888 15.6314 16.5915L15.663 16.5969C15.6792 16.5996 15.6958 16.5991 15.7119 16.5955C15.7279 16.5918 15.7431 16.585 15.7565 16.5755C15.7699 16.5659 15.7813 16.5538 15.7901 16.5399C15.7988 16.526 15.8047 16.5104 15.8075 16.4942L15.959 15.5983C15.9618 15.5819 15.9613 15.5652 15.9576 15.549C15.9538 15.5329 15.9469 15.5176 15.9372 15.5041C15.9275 15.4907 15.9152 15.4793 15.9011 15.4706C15.8869 15.4619 15.8712 15.4561 15.8548 15.4535L15.8294 15.4496C15.813 15.447 15.7974 15.4413 15.7833 15.4326C15.7692 15.424 15.757 15.4127 15.7473 15.3993C15.7376 15.3859 15.7306 15.3708 15.7268 15.3547C15.7229 15.3386 15.7223 15.322 15.725 15.3057L15.8872 14.3049C15.8925 14.2723 15.9104 14.243 15.9372 14.2236C15.9639 14.2041 15.9973 14.196 16.03 14.2011L16.0644 14.2064C16.097 14.2114 16.1302 14.2033 16.1569 14.184C16.1837 14.1646 16.2017 14.1355 16.2071 14.103L16.3643 13.1565C16.3697 13.1237 16.3619 13.0902 16.3427 13.0632C16.3234 13.0362 16.2942 13.0179 16.2615 13.0123L16.2278 13.0066C16.1952 13.0011 16.166 12.9829 16.1468 12.956C16.1275 12.9291 16.1197 12.8956 16.125 12.8629L16.287 11.8667C16.2897 11.8504 16.2955 11.8348 16.3042 11.8208C16.313 11.8067 16.3244 11.7945 16.3378 11.7849C16.3513 11.7753 16.3665 11.7684 16.3826 11.7647C16.3987 11.761 16.4154 11.7605 16.4317 11.7633L16.463 11.7686C16.4793 11.7713 16.4959 11.7709 16.512 11.7672C16.5281 11.7635 16.5433 11.7566 16.5567 11.7471C16.5701 11.7375 16.5815 11.7254 16.5903 11.7114C16.599 11.6974 16.6049 11.6818 16.6076 11.6655L16.7645 10.7208C16.7699 10.6881 16.7621 10.6546 16.7429 10.6275C16.7236 10.6005 16.6944 10.5822 16.6617 10.5767L16.6284 10.5711C16.5957 10.5655 16.5665 10.5473 16.5472 10.5203C16.528 10.4933 16.5202 10.4597 16.5256 10.427L16.69 9.43328C16.6928 9.41638 16.6921 9.39909 16.688 9.38247C16.6838 9.36585 16.6763 9.35026 16.6659 9.33665L16.2412 8.78162C16.2308 8.76802 16.2233 8.75244 16.2192 8.73584C16.215 8.71923 16.2143 8.70195 16.2171 8.68506L16.4708 7.14636C16.4703 7.09499 16.4826 7.0443 16.5066 6.99887C16.5306 6.95344 16.5655 6.91468 16.6082 6.88608C16.6508 6.85749 16.7 6.83995 16.7511 6.83506C16.8022 6.83016 16.8538 6.83806 16.9011 6.85804L17.2087 6.9068C17.2379 6.91144 17.2679 6.90557 17.2932 6.89025L18.0652 6.42319C18.0807 6.41381 18.094 6.40119 18.1041 6.38619C18.1143 6.37118 18.1211 6.35416 18.124 6.33629L18.2609 5.50422C18.2657 5.47601 18.2606 5.44702 18.2464 5.42215C18.2323 5.39728 18.21 5.37806 18.1833 5.36774C17.855 5.24477 17.7148 5.0315 17.7661 4.72793C17.7705 4.64091 17.8013 4.55728 17.8543 4.48813C17.9073 4.41897 17.9801 4.36754 18.063 4.34064C18.2328 4.301 18.4095 4.301 18.5794 4.34064L21.2824 4.78554C21.3033 4.78898 21.323 4.79767 21.3396 4.8108C21.3563 4.82392 21.3693 4.84105 21.3775 4.86058L23.0579 8.85155C23.0671 8.87333 23.0699 8.89726 23.0661 8.92058L21.7938 16.6391C21.79 16.6623 21.7796 16.6841 21.764 16.7017C21.7484 16.7194 21.7281 16.7323 21.7054 16.7389L20.49 17.0955C20.3093 17.1514 20.1845 17.0955 20.1242 16.9578C20.0943 16.8812 20.0956 16.796 20.1278 16.7204C20.1599 16.6448 20.2205 16.5848 20.2964 16.5533C20.5105 16.4308 20.737 16.3312 20.972 16.2563L21.2803 16.1628C21.3027 16.156 21.3228 16.1431 21.3382 16.1255C21.3536 16.1078 21.3638 16.0863 21.3676 16.0632L22.5039 9.15168H22.5082Z" fill="#EBA43F"/>
</svg>
