<svg width="19" height="24" viewBox="0 0 19 24" fill="none" xmlns="http://www.w3.org/2000/svg">
<path d="M16.4135 2.4963C16.3397 2.19843 16.2539 1.90346 16.1513 1.5232C16.0591 1.68657 16.004 1.76555 15.9671 1.85211C15.2036 3.64537 14.4417 5.4394 13.6811 7.23419C12.6312 9.70649 11.5816 12.1794 10.5324 14.6528C10.2557 15.3075 9.7838 15.712 9.08111 15.7964C7.65526 15.9678 6.68222 14.5921 7.26058 13.2265C9.04074 9.02709 10.8239 4.82922 12.61 0.632906C12.6707 0.48906 12.7323 0.34479 12.8006 0.184334C12.7153 0.175059 12.6868 0.162754 12.669 0.171665C12.5684 0.220038 12.4674 0.269684 12.3711 0.326544C10.6957 1.32037 8.91557 1.99172 6.95464 2.10925C6.62961 2.12877 6.52559 2.32657 6.47345 2.62275C6.06943 4.92229 5.69645 7.22868 5.23091 9.51549C4.49931 13.1136 3.35442 16.5887 1.94935 19.9775C1.90198 20.0697 1.88108 20.1733 1.88895 20.2766C1.89683 20.38 1.93318 20.4792 1.99397 20.5632C3.45074 22.8721 6.30627 24.0862 8.95587 23.4942C9.03954 23.469 9.11721 23.4271 9.18418 23.371C9.25115 23.3149 9.30603 23.2458 9.34547 23.1679C10.7157 20.0374 12.279 17.0066 14.1873 14.1741C15.6289 12.0333 17.182 9.96703 18.7016 7.87965C18.9316 7.56389 18.9096 7.34112 18.6749 7.05471C17.5879 5.72464 16.8149 4.1665 16.4135 2.4963Z" fill="white"/>
<path d="M4.78369 6.45964C3.6702 9.08258 2.55655 11.7058 1.44274 14.3293C1.02498 15.2978 0.855367 16.3553 0.949245 17.4059C0.996345 17.9541 1.1351 18.4943 1.23312 19.0379C1.2798 19.0366 1.3269 19.0354 1.37357 19.0341C3.05835 14.8984 4.25105 10.5789 4.92711 6.16467C4.87916 6.26275 4.82655 6.35901 4.78369 6.45964Z" fill="white"/>
<path d="M10.5689 22.9491C10.6154 22.9312 10.6608 22.9105 10.7047 22.8871C12.1038 22.187 13.2049 21.0077 13.8076 19.564C14.4713 18.013 15.1311 16.46 15.7868 14.905C16.2748 13.7555 16.763 12.606 17.2513 11.4567C14.5256 14.9992 12.2388 18.8586 10.4408 22.9508C10.4834 22.9549 10.5264 22.9543 10.5689 22.9491Z" fill="white"/>
<path d="M12.9071 4.532C12.4013 4.31051 11.9417 4.51497 11.6863 5.10102C11.2284 6.15214 10.7784 7.20681 10.3364 8.26504C10.2851 8.37563 10.2565 8.4954 10.2523 8.61725C10.248 8.7391 10.2683 8.86055 10.3119 8.97442C10.3554 9.0883 10.4214 9.19228 10.5058 9.28021C10.5903 9.36814 10.6915 9.43824 10.8036 9.48636C10.9133 9.53106 11.0308 9.5536 11.1493 9.55271C11.2678 9.55181 11.3849 9.52749 11.494 9.48115C11.603 9.4348 11.7018 9.36735 11.7847 9.28267C11.8676 9.19799 11.9329 9.09775 11.9769 8.98772C12.2154 8.45259 12.4369 7.9103 12.6661 7.37092C12.665 7.37043 12.6639 7.37 12.6627 7.36965C12.8821 6.85318 13.107 6.33933 13.3191 5.82031C13.564 5.22117 13.4095 4.7518 12.9071 4.532Z" fill="white"/>
<path d="M9.58264 10.0403C9.08442 11.2132 8.58764 12.3864 8.09229 13.5599C7.84576 14.1467 8.01252 14.6272 8.52389 14.8427C9.03096 15.0566 9.48887 14.8363 9.74007 14.2503C10.237 13.091 10.7315 11.9305 11.2236 10.7689C11.261 10.6675 11.2932 10.5643 11.32 10.4596C10.4806 10.387 10.4547 10.3764 9.71588 9.78394C9.66114 9.88796 9.61574 9.96137 9.58264 10.0403Z" fill="white"/>
<path d="M13.9731 4.22812C14.2405 3.59842 14.4904 3.01067 14.7459 2.40807C14.2002 2.17469 13.6804 1.9527 13.1423 1.72314C12.8838 2.33169 12.6338 2.91986 12.3666 3.54956C13.0205 3.52368 13.5297 3.76985 13.9731 4.22812Z" fill="white"/>
</svg>
