<svg width="22" height="24" viewBox="0 0 22 24" fill="none" xmlns="http://www.w3.org/2000/svg">
<path d="M20.4749 11.6933L15.2496 9.46657C15.0708 9.38657 14.8646 9.33324 14.6446 9.33324H13.7508V3.50653C13.7508 1.74652 12.4307 0.173176 10.6293 0.0131753C8.59423 -0.160159 6.87538 1.39985 6.87538 3.3332V14.1999L4.30399 13.6666C4.04272 13.6266 2.90141 13.4666 1.92511 14.4133L0 16.2933L7.04039 23.2133C7.54917 23.72 8.25046 24 8.97925 24H17.986C19.3336 24 20.4749 23.0667 20.6949 21.7733L21.96 14.5199C22.1662 13.3733 21.5612 12.2266 20.4749 11.6933ZM19.2511 14.0799L17.986 21.3333H8.97925L3.89147 16.2933L9.62553 17.48V3.3332C9.62553 2.95986 9.92805 2.66653 10.3131 2.66653C10.6981 2.66653 11.0006 2.95986 11.0006 3.3332V11.5733H13.4207L19.2511 14.0799Z" fill="white"/>
</svg>
