<svg width="30" height="13" viewBox="0 0 30 13" fill="none" xmlns="http://www.w3.org/2000/svg">
<path d="M0.393555 11.509V1.34705H2.81682V11.509H0.393555ZM9.96148 1.34705C7.81966 3.80152 6.63148 5.30237 5.86541 6.44371C7.75712 8.2572 9.85204 11.04 10.2429 11.509H7.03794C5.78909 9.81002 4.45322 8.1767 3.03567 6.61565C3.95808 4.95848 5.70907 2.59776 6.70964 1.34705L9.96148 1.34705Z" fill="white" stroke="white" stroke-width="0.204786" stroke-miterlimit="10"/>
<path d="M10.4753 12.7598L15.6189 0.81543H18.1047L12.8986 12.7598H10.4753Z" fill="white" stroke="white" stroke-width="0.204786" stroke-miterlimit="10"/>
<path d="M23.5645 1.34705C26.363 1.34705 29.0833 2.39449 29.0833 6.33426C29.0833 10.1801 26.3943 11.509 23.4239 11.509H19.5154V1.34705H23.5645ZM21.9386 9.46104H23.3926C25.425 9.46104 26.5506 8.52297 26.5506 6.38113C26.5506 4.4582 25.3937 3.39506 23.4864 3.39506H21.9386V9.46104Z" fill="white" stroke="white" stroke-width="0.204786" stroke-miterlimit="10"/>
</svg>
