<svg width="6" height="14" viewBox="0 0 6 14" fill="none" xmlns="http://www.w3.org/2000/svg">
<path d="M1.35886 11.089H1.79096V7.57782H1.35886C1.12021 7.57782 0.926758 7.36019 0.926758 7.09171V5.93061C0.926758 5.66213 1.12021 5.4445 1.35886 5.4445H3.77861C4.01726 5.4445 4.21071 5.66213 4.21071 5.93061V11.089H4.64281C4.88146 11.089 5.07491 11.3066 5.07491 11.5751V12.7362C5.07491 13.0046 4.88146 13.2223 4.64281 13.2223H1.35886C1.12021 13.2223 0.926758 13.0046 0.926758 12.7362V11.5751C0.926758 11.3066 1.12021 11.089 1.35886 11.089ZM3.00083 0.777832C2.14171 0.777832 1.44528 1.56132 1.44528 2.52783C1.44528 3.49434 2.14171 4.27783 3.00083 4.27783C3.85995 4.27783 4.55639 3.49434 4.55639 2.52783C4.55639 1.56132 3.85993 0.777832 3.00083 0.777832Z" fill="white"/>
</svg>
