<svg width="25" height="25" viewBox="0 0 25 25" fill="none" xmlns="http://www.w3.org/2000/svg">
<path d="M8.99241 0.974609C7.24332 0.974603 5.5335 1.49327 4.07918 2.46501C2.62485 3.43675 1.49134 4.81793 0.82199 6.43388C0.152637 8.04983 -0.0224972 9.82798 0.318733 11.5435C0.659963 13.259 1.50223 14.8347 2.73903 16.0715C3.97583 17.3083 5.55161 18.1506 7.26709 18.4918C8.98258 18.8331 10.7607 18.6579 12.3767 17.9886C13.9926 17.3192 15.3738 16.1857 16.3456 14.7314C17.3173 13.2771 17.836 11.5673 17.836 9.81815C17.8333 7.47352 16.9007 5.22567 15.2428 3.56776C13.5849 1.90984 11.3371 0.977264 8.99241 0.974609ZM8.99241 17.172C7.53796 17.172 6.11617 16.7407 4.90684 15.9327C3.69751 15.1246 2.75494 13.9761 2.19834 12.6324C1.64174 11.2887 1.49611 9.81006 1.77985 8.38355C2.06359 6.95705 2.76397 5.64672 3.79242 4.61826C4.82087 3.58981 6.13119 2.88942 7.55769 2.60566C8.98419 2.32191 10.4628 2.46753 11.8065 3.02412C13.1503 3.58071 14.2988 4.52326 15.1069 5.73259C15.9149 6.94192 16.3462 8.3637 16.3462 9.81815C16.344 11.7678 15.5685 13.637 14.1899 15.0157C12.8113 16.3943 10.9421 17.1698 8.99241 17.172Z" fill="white"/>
<path d="M8.99008 3.47424C7.30795 3.47613 5.69526 4.14519 4.50581 5.33463C3.31636 6.52407 2.64729 8.13675 2.64539 9.81888C2.64539 10.0164 2.72386 10.2059 2.86355 10.3456C3.00324 10.4853 3.19271 10.5637 3.39026 10.5637C3.58781 10.5637 3.77727 10.4853 3.91696 10.3456C4.05665 10.2059 4.13513 10.0164 4.13513 9.81888C4.13659 8.53172 4.64857 7.2977 5.55873 6.38755C6.4689 5.4774 7.70292 4.96544 8.99008 4.96399C9.18763 4.96399 9.37709 4.88551 9.51678 4.74582C9.65647 4.60613 9.73495 4.41667 9.73495 4.21912C9.73495 4.02156 9.65647 3.8321 9.51678 3.69241C9.37709 3.55272 9.18763 3.47424 8.99008 3.47424Z" fill="white"/>
<path d="M23.9073 22.9002L17.1195 16.1124L15.439 17.7931L22.2268 24.5809C22.4498 24.8034 22.752 24.9283 23.0671 24.9283C23.3821 24.9283 23.6843 24.8034 23.9073 24.5809C24.1299 24.3578 24.2549 24.0556 24.2549 23.7405C24.2549 23.4254 24.1299 23.1232 23.9073 22.9002Z" fill="white"/>
</svg>
