<svg width="19" height="13" viewBox="0 0 19 13" fill="none" xmlns="http://www.w3.org/2000/svg">
<path d="M2.09822 2.47033L4.86477 6.46939H6.27078V0.543945H4.88301V4.25982L2.3448 0.543945H0.710449V6.46939H2.09822V2.47033Z" fill="white"/>
<path d="M10.1006 0.22522L7.09668 7.20068H8.51194L11.5522 0.22522H10.1006Z" fill="white"/>
<path d="M13.3965 5.39399H16.1995L16.5464 6.47135H18.1077C17.4758 4.44465 16.7103 2.4621 15.816 0.536743H13.8439C12.9628 2.46226 12.2124 4.44496 11.5979 6.47135H13.0678C13.1774 6.11533 13.287 5.75001 13.3965 5.39399ZM14.7843 1.58673C15.1952 2.53625 15.5056 3.3671 15.7977 4.19795H13.7891C14.0904 3.31235 14.4191 2.42675 14.7843 1.58673H14.7843Z" fill="white"/>
<path d="M1.16714 8.5376H0.411743V11.7055H2.65846V11.067H1.16714V8.5376Z" fill="white"/>
<path d="M4.1924 9.15027C3.47604 9.15027 2.80347 9.5548 2.80347 10.4368C2.80347 11.3579 3.38341 11.7624 4.28017 11.7624C4.63158 11.7539 4.97976 11.6931 5.31328 11.5821V11.0071C4.98508 11.1112 4.64385 11.1686 4.29964 11.1776C4.01698 11.1776 3.6076 11.0997 3.55883 10.7244H5.44485V10.3832C5.44485 9.58881 5.016 9.15027 4.1924 9.15027ZM3.56375 10.2663C3.60275 9.89102 3.83664 9.7253 4.19725 9.7253C4.50915 9.7253 4.68463 9.92995 4.68948 10.2663H3.56375Z" fill="white"/>
<path d="M7.03929 9.15032C6.68479 9.14865 6.33138 9.18956 5.98664 9.27218V9.87153C6.25617 9.78382 6.53672 9.73461 6.82001 9.72535C7.29271 9.72535 7.59977 9.83751 7.59977 10.1883V10.2858C7.35305 10.1961 7.09221 10.1515 6.82972 10.1542C6.35216 10.1542 5.78198 10.3394 5.78198 10.9291C5.78198 11.3921 6.14744 11.7625 6.78101 11.7625C7.10427 11.7634 7.42026 11.6666 7.68747 11.4847L7.75571 11.704H8.33566V10.1834C8.33567 9.39882 7.77519 9.15032 7.03929 9.15032ZM7.59977 11.051C7.41851 11.1514 7.21694 11.2097 7.01005 11.2215C6.69815 11.2215 6.5422 11.1094 6.5422 10.9437C6.5422 10.7586 6.68845 10.6416 6.99543 10.6416C7.20229 10.6326 7.4086 10.6692 7.59976 10.7488L7.59977 11.051Z" fill="white"/>
<path d="M10.9976 9.39849C10.7505 9.24352 10.4657 9.15927 10.174 9.15491C9.45275 9.15491 8.8241 9.54468 8.8241 10.4464C8.8241 11.2748 9.42836 11.7524 10.1448 11.7524C10.3994 11.7497 10.6492 11.6826 10.8709 11.5575V11.616C10.8709 11.9863 10.5054 12.1325 10.0668 12.1325C9.73013 12.1237 9.39669 12.0645 9.07752 11.9571V12.576C9.42204 12.6948 9.78544 12.7493 10.1496 12.7368C10.9196 12.7368 11.6068 12.4249 11.6068 11.4892V9.20354H11.061L10.9976 9.39849ZM10.8709 10.958C10.698 11.0793 10.4924 11.1455 10.2812 11.148C9.90598 11.148 9.58916 10.9337 9.58916 10.4365C9.58916 9.97844 9.86698 9.75917 10.2617 9.75917C10.4777 9.76097 10.6888 9.82347 10.8709 9.93951L10.8709 10.958Z" fill="white"/>
<path d="M14.0734 10.9153C13.8807 11.0617 13.6475 11.1451 13.4057 11.1541C13.0792 11.1541 12.972 10.9738 12.972 10.6668V9.20471H12.2361V10.7594C12.2361 11.5245 12.6162 11.7633 13.1669 11.7633C13.5136 11.7471 13.8491 11.6359 14.1367 11.4417L14.2147 11.7048H14.8093V9.20471H14.0734L14.0734 10.9153Z" fill="white"/>
<path d="M16.6879 9.15027C15.9715 9.15027 15.299 9.5548 15.299 10.4368C15.299 11.3579 15.8789 11.7624 16.7756 11.7624C17.127 11.7539 17.4752 11.6931 17.8088 11.5821V11.0071C17.4805 11.1112 17.1393 11.1686 16.7951 11.1776C16.5125 11.1776 16.103 11.0997 16.0543 10.7244H17.9403V10.3832C17.9403 9.58881 17.5115 9.15027 16.6879 9.15027ZM16.0592 10.2663C16.0982 9.89102 16.3321 9.7253 16.6927 9.7253C17.0046 9.7253 17.1801 9.92995 17.185 10.2663H16.0592Z" fill="white"/>
</svg>
