<svg width="20" height="26" viewBox="0 0 20 26" fill="none" xmlns="http://www.w3.org/2000/svg">
<path d="M6.17153 14.5985C6.1238 14.9187 5.96352 15.2113 5.71945 15.424C5.66326 15.4796 5.61969 15.5466 5.59171 15.6205C5.44429 15.9842 5.29688 16.3478 5.16912 16.7212C5.11267 16.9056 5.0732 17.0948 5.05119 17.2863C5.05395 17.4029 5.02172 17.5176 4.95866 17.6157C4.8956 17.7138 4.8046 17.7908 4.6974 17.8367C4.65197 17.8669 4.61616 17.9095 4.59421 17.9595C4.54015 18.0578 4.49593 18.161 4.44679 18.2642C4.39511 18.3736 4.31106 18.4645 4.20602 18.5246C4.15885 18.5474 4.11726 18.5803 4.08415 18.6209C4.05104 18.6618 4.02724 18.7094 4.01438 18.7605C3.99445 18.8477 3.95954 18.9308 3.91119 19.0062C3.86742 19.0794 3.83993 19.1612 3.8306 19.246C3.82128 19.3307 3.83033 19.4166 3.85715 19.4975C3.88564 19.5904 3.88564 19.6897 3.85715 19.7825C3.74904 20.0577 3.6655 20.3427 3.53774 20.613C3.39088 20.9102 3.26925 21.2192 3.17411 21.5368C3.14463 21.635 3.09549 21.7284 3.06109 21.8267C3.04323 21.8975 3.00475 21.9615 2.95052 22.0105C2.89629 22.0595 2.82875 22.0912 2.75644 22.1018C2.725 22.1058 2.6955 22.1192 2.67181 22.1402C2.64813 22.1613 2.63138 22.189 2.62377 22.2198C2.52059 22.4802 2.41248 22.7406 2.31912 23.006C2.28422 23.1207 2.26601 23.2399 2.26506 23.3598V24.0133C2.25814 24.1574 2.29222 24.3006 2.36334 24.4261C2.41003 24.5154 2.43843 24.6131 2.44686 24.7135C2.4553 24.8139 2.44361 24.915 2.41248 25.0108C2.41248 25.0845 2.3486 25.0993 2.28964 25.1042C1.94075 25.1042 1.59679 25.1484 1.25282 25.1484C1.07289 25.138 0.89392 25.115 0.717213 25.0796C0.618931 25.0796 0.584546 25.0157 0.564887 24.9224C0.499883 24.5572 0.521768 24.1818 0.628769 23.8266C0.795836 23.2517 0.93834 22.6669 1.09067 22.0822C1.10953 22.0376 1.1125 21.9879 1.09908 21.9414C1.08566 21.8949 1.05666 21.8544 1.01695 21.8267C0.987384 21.801 0.966736 21.7666 0.95798 21.7284C0.9142 21.4405 0.951639 21.1461 1.06608 20.8783C1.14471 20.7309 1.22825 20.5785 1.31177 20.4361C1.43159 20.2524 1.49167 20.0361 1.48376 19.8169C1.47576 19.6459 1.51485 19.4759 1.59678 19.3256C1.76552 18.925 1.9834 18.547 2.24539 18.2003C2.2709 18.1696 2.29086 18.1347 2.30437 18.0971C2.3879 17.9448 2.4616 17.7826 2.55497 17.6352C2.6655 17.4543 2.71061 17.2409 2.68273 17.0308C2.65083 16.8343 2.64094 16.6349 2.65325 16.4362C2.73187 15.8711 2.83506 15.311 2.92842 14.7508C2.92842 14.6083 2.97264 14.4658 2.84488 14.3528C2.82935 14.3405 2.81676 14.3249 2.80803 14.3071C2.79961 14.2891 2.79541 14.2694 2.79575 14.2496C2.81973 14.1824 2.82632 14.1102 2.81492 14.0397C2.80362 13.9695 2.77509 13.9032 2.73187 13.8467V13.7386C2.7666 13.6637 2.80944 13.5928 2.85962 13.5272C2.8337 13.4958 2.80399 13.4678 2.77117 13.4437C2.75105 13.4342 2.73301 13.4209 2.7181 13.4044C2.70341 13.3876 2.69226 13.3681 2.68534 13.3469C2.67841 13.3257 2.67585 13.3033 2.67781 13.2811C2.67977 13.2588 2.68647 13.2372 2.69747 13.2177C2.72083 13.1504 2.7389 13.0814 2.75153 13.0113C2.79083 12.8245 2.87437 12.6968 3.11022 12.7312V12.5248C3.05618 12.117 3.07582 11.7042 2.98738 11.3013C2.94404 11.0563 2.92266 10.808 2.9235 10.5593C2.91532 10.4908 2.92083 10.4213 2.93972 10.3549C2.95875 10.2887 2.99068 10.2268 3.03368 10.1729C3.07669 10.119 3.12992 10.0742 3.19032 10.0409C3.25061 10.0077 3.31693 9.9868 3.3854 9.9795C3.4459 9.97382 3.50451 9.95541 3.55738 9.92545L3.066 9.82714C2.57462 9.71413 2.65325 9.82714 2.66799 9.2768C2.67112 9.1884 2.68599 9.10082 2.71221 9.01635C2.80895 8.51939 2.85669 8.01413 2.85471 7.50784C2.85471 7.22286 2.99722 7.0951 3.28221 7.1393C3.44752 7.165 3.61664 7.14809 3.77359 7.09018C3.91118 7.04597 3.95048 6.98209 3.91609 6.83957C3.82809 6.48803 3.80313 6.12367 3.84238 5.76341C3.86355 4.97028 4.14695 4.20653 4.64825 3.59155C4.81749 3.39102 5.03157 3.23314 5.27315 3.1307C5.51474 3.02825 5.77704 2.98412 6.03885 3.00186C6.07881 2.99906 6.1189 3.0051 6.15626 3.01954C6.19363 3.03398 6.22736 3.05647 6.25506 3.08541C6.30025 3.12897 6.34782 3.16998 6.39756 3.20826C6.59903 3.07558 6.60885 3.07066 6.53514 2.86924C6.43395 2.57565 6.39953 2.26319 6.43438 1.95462C6.46923 1.64605 6.57248 1.34914 6.73661 1.08552C6.88206 0.813678 7.09898 0.586707 7.36396 0.429098C7.62894 0.271489 7.93193 0.189224 8.24023 0.191179C8.63625 0.177945 9.02534 0.297279 9.34584 0.530263C9.48622 0.622808 9.63416 0.70335 9.78808 0.771034C9.91093 0.834915 9.99939 0.898798 9.97481 1.06585C9.97517 1.15337 9.99711 1.23945 10.0387 1.31646C10.1632 1.66745 10.2036 2.04278 10.1566 2.41223C10.1581 2.48156 10.1359 2.54934 10.0937 2.60435C10.0519 2.65962 9.9927 2.69924 9.92567 2.71688C9.85196 2.71688 9.78318 2.78568 9.70946 2.81027C9.52274 2.87901 9.51783 2.87902 9.53257 3.08542C9.54729 3.234 9.57025 3.38164 9.60135 3.52767C9.71816 3.56402 9.84326 3.56402 9.96007 3.52767C10.1282 3.50128 10.2929 3.45679 10.4514 3.39499C10.5486 3.36636 10.6503 3.35634 10.7512 3.36548C10.7856 3.18367 10.82 3.00678 10.8593 2.82989C10.8593 2.79552 10.9035 2.77584 10.9281 2.74639C10.9541 2.77027 10.9757 2.79853 10.992 2.82989C10.9944 2.86916 10.9944 2.90854 10.992 2.94782C10.9844 3.02006 10.9963 3.09301 11.0264 3.15914C11.0608 3.20826 11.1541 3.20826 11.218 3.23285C11.2819 3.25739 11.2966 3.23285 11.3015 3.27214C11.331 3.46871 11.4834 3.40974 11.6013 3.40974H16.5839C16.5778 3.48631 16.5879 3.56331 16.6134 3.63576C16.6188 3.64519 16.6258 3.65366 16.634 3.66084C16.6425 3.6673 16.6522 3.67212 16.6625 3.67505C16.692 3.67505 16.7362 3.67505 16.7411 3.64068C16.7485 3.58524 16.7485 3.52907 16.7411 3.47363V2.78568C16.7411 2.71688 16.7411 2.67759 16.8394 2.67759C16.9377 2.67759 16.9377 2.71196 16.9377 2.78075V3.27213C16.9298 3.36731 16.9578 3.46198 17.0163 3.5375C17.0605 3.59154 17.0605 3.61608 17.1342 3.56695C17.1532 3.55338 17.176 3.54634 17.1993 3.54687C17.2225 3.5474 17.245 3.55548 17.2633 3.56989C17.2816 3.58431 17.2947 3.60427 17.3007 3.62678C17.3066 3.6493 17.3051 3.67314 17.2964 3.69471C17.262 3.82248 17.2374 3.84707 17.2964 3.89128C17.3598 3.92434 17.4321 3.93638 17.5028 3.92565H18.6821C18.8246 3.80772 18.9818 3.86668 19.1341 3.8716C19.2865 3.87653 19.4388 3.8716 19.5911 3.8716C19.7435 3.8716 19.7385 3.91587 19.7336 4.07309C19.7287 4.23031 19.7336 4.21069 19.6009 4.21561C19.4683 4.22053 19.4044 4.21561 19.311 4.21561C19.1909 4.19419 19.067 4.21139 18.9572 4.26474C18.8442 4.34337 18.7705 4.16642 18.6526 4.1861C18.6052 4.19102 18.5574 4.19102 18.5101 4.1861H17.6158C17.3996 4.1861 17.1883 4.22539 16.9721 4.24014C16.8925 4.2397 16.8134 4.22981 16.7362 4.21069C16.6134 4.21069 16.6035 4.21069 16.5937 4.32862V4.46622H14.6478C14.4905 4.49327 14.337 4.53946 14.1909 4.60376C14.1909 4.60376 14.1466 4.65295 14.1466 4.67748C14.1478 4.72187 14.1359 4.76561 14.1123 4.80322C14.0886 4.84082 14.0544 4.8706 14.0139 4.8888C13.9572 4.93324 13.9061 4.98438 13.8616 5.0411C13.8272 5.07553 13.8076 5.13941 13.7732 5.14919C13.5864 5.20329 13.6061 5.34575 13.5963 5.49319C13.6055 5.74115 13.6451 5.98704 13.7142 6.22535C13.7235 6.26511 13.7354 6.30446 13.7486 6.34327C13.8125 6.57913 13.8174 6.59388 13.5815 6.63809C13.5177 6.64076 13.4572 6.66764 13.4125 6.71328C13.3678 6.75893 13.3421 6.81989 13.3408 6.88378C13.3113 7.08034 13.2523 7.27199 13.2179 7.47347C13.1999 7.62189 13.1456 7.76359 13.0599 7.88612C12.9742 8.00864 12.8598 8.10823 12.7265 8.17611C12.664 8.21089 12.6089 8.25765 12.5644 8.31371C12.4395 8.45251 12.2801 8.5559 12.1025 8.61345C12.0471 8.63619 11.9872 8.64578 11.9276 8.64146C11.868 8.63691 11.8102 8.61893 11.7585 8.58885C11.7121 8.55794 11.657 8.54247 11.6013 8.54465C11.4067 8.55885 11.2118 8.52157 11.0362 8.43656C10.6333 8.23999 10.2352 8.03359 9.8323 7.83217L9.6161 7.71424L9.45887 8.2695C9.51465 8.30189 9.57206 8.3314 9.63085 8.35792C9.74545 8.39925 9.84414 8.47559 9.91293 8.57613C9.98172 8.67667 10.0171 8.79631 10.0141 8.9181C10.0198 9.21663 10.0084 9.51524 9.97973 9.81244C9.94533 10.1122 9.92567 10.4512 9.92076 10.7952C9.88752 11.1092 9.76279 11.4065 9.56205 11.6502C9.52199 11.6876 9.46941 11.7086 9.41464 11.7092C9.34481 11.6974 9.27586 11.681 9.20825 11.66C9.12471 11.66 9.04118 11.5323 8.96748 11.6158C8.92407 11.6579 8.89121 11.7097 8.87157 11.7669C8.85194 11.8241 8.84607 11.8851 8.85446 11.945C8.86531 12.0493 8.88337 12.1528 8.90851 12.2546C8.94446 12.4591 9.0422 12.6478 9.18859 12.7951C9.77327 13.4421 10.2331 14.1919 10.5448 15.0063C10.707 15.4141 10.8691 15.8269 11.0362 16.2397C11.0706 16.333 11.0902 16.4264 11.2229 16.4166C11.2475 16.4166 11.2917 16.4608 11.2966 16.4952C11.3157 16.5725 11.3272 16.6515 11.331 16.7311C11.3239 16.8269 11.3499 16.9223 11.4047 17.0013C11.468 17.0969 11.4958 17.2116 11.4833 17.3256C11.4539 17.7237 11.4293 18.1266 11.3949 18.5246C11.3747 18.854 11.3369 19.182 11.2819 19.5074C11.2367 19.7918 11.2484 20.0824 11.3163 20.3624C11.3771 20.6391 11.3315 20.9286 11.1885 21.1732C11.1615 21.2213 11.1463 21.2752 11.1443 21.3304C11.1443 21.5515 11.1001 21.7776 11.1001 22.0036C11.1085 22.2276 11.1315 22.4508 11.1688 22.6718C11.1928 22.7563 11.2366 22.8338 11.2966 22.8979C11.4784 23.1239 11.6701 23.3401 11.8568 23.5613C11.9562 23.6901 12.0997 23.7776 12.2597 23.807C12.4619 23.8594 12.6555 23.9405 12.8346 24.0477C12.9291 24.1093 12.9964 24.2047 13.0229 24.3143C13.0494 24.4239 13.033 24.5394 12.9771 24.6374C12.9597 24.6588 12.9381 24.6764 12.9136 24.6891C12.889 24.7017 12.8622 24.7092 12.8346 24.7111C12.3954 24.7545 11.9537 24.766 11.5128 24.7455C11.1301 24.7013 10.752 24.624 10.3826 24.5145C10.3142 24.5047 10.2447 24.5047 10.1763 24.5145C9.96617 24.5096 9.756 24.5195 9.5473 24.544C9.4917 24.5417 9.43688 24.5301 9.38515 24.5096C9.21807 24.4457 9.20824 24.4408 9.21806 24.2688C9.22021 24.148 9.23504 24.0278 9.2623 23.9101C9.30524 23.6016 9.39125 23.3005 9.51782 23.0158C9.54273 22.9742 9.55628 22.9268 9.55712 22.8782V22.3869C9.55712 22.1215 9.52273 21.8561 9.50799 21.5908C9.50799 21.5073 9.50799 21.4336 9.41464 21.3844C9.32128 21.3353 9.33601 21.2567 9.32618 21.1732C9.31635 21.0896 9.27213 20.8931 9.24265 20.7505C9.21317 20.6081 9.15911 20.4066 9.13947 20.2592C9.09523 19.8267 9.06575 19.3944 9.03626 18.962C9.02523 18.8897 9.03249 18.8159 9.05739 18.7472C9.08229 18.6785 9.12402 18.6172 9.17877 18.5688C9.20873 18.5424 9.23268 18.5099 9.24903 18.4735C9.26472 18.4369 9.27259 18.3974 9.27213 18.3575C9.27653 18.1929 9.2913 18.0288 9.31635 17.8661C9.35565 17.6549 9.21316 17.5222 9.11488 17.3747C9.11488 17.3453 9.02643 17.3453 8.98221 17.3453H8.66772C8.58414 17.3435 8.50238 17.3205 8.43017 17.2784C8.35795 17.2362 8.29766 17.1764 8.25496 17.1045C7.90609 16.5689 7.54737 16.048 7.19358 15.5174C7.16941 15.4634 7.13017 15.4175 7.08057 15.3852C7.03065 15.3533 6.97274 15.3361 6.91349 15.3356C6.79174 15.3408 6.67167 15.3056 6.57209 15.2353C6.47251 15.1651 6.39903 15.0638 6.36314 14.9474C6.30418 14.8294 6.24522 14.7606 6.17151 14.5985L6.17153 14.5985ZM12.4268 5.39003H11.6701C11.6447 5.39496 11.6208 5.40534 11.5998 5.42045C11.5787 5.43514 11.5611 5.45426 11.5482 5.47647C11.535 5.49885 11.5268 5.52384 11.5241 5.54971C11.5217 5.57541 11.5246 5.60132 11.5325 5.62589C11.6308 5.80278 11.7438 5.97967 11.8617 6.17623L12.4268 5.39003ZM11.8421 5.33101H12.3334C12.412 5.33101 12.4858 5.29664 12.4907 5.218C12.5005 5.11669 12.5005 5.01466 12.4907 4.91335H12.4514C12.3401 4.90597 12.2285 4.90597 12.1172 4.91335C12.0971 4.92203 12.0793 4.93554 12.0656 4.95268C12.0519 4.96983 12.0426 4.99008 12.0386 5.01166C12.0189 5.22784 12.0189 5.23276 11.8421 5.33101Z" fill="#EBA43F"/>
</svg>
