<svg width="17" height="29" viewBox="0 0 17 29" fill="none" xmlns="http://www.w3.org/2000/svg">
<path d="M16.2454 23.1447C16.2225 22.4161 16.1214 21.6921 15.9438 20.9851C15.6805 19.9467 15.1764 18.9849 14.4723 18.1775L14.3012 17.9778C14.2405 17.9126 14.1916 17.8433 14.1305 17.7822C13.4346 17.0637 12.6251 16.4648 11.7344 16.0096L11.2699 15.7855C11.298 15.7855 11.3188 15.7407 11.3432 15.7203C12.1084 15.1773 12.6898 14.414 13.0098 13.5321C13.0098 13.5321 13.1297 13.1287 13.1769 12.9616C13.434 12.1324 13.4598 11.2487 13.2514 10.4059C13.0431 9.56315 12.6085 8.79328 11.9947 8.17938H4.6757C4.24028 8.64031 3.90244 9.18444 3.68246 9.77913C3.51664 10.1689 3.40823 10.5807 3.3606 11.0016V11.0342C3.33582 11.2506 3.329 11.4686 3.34021 11.6861C3.34084 11.8551 3.35174 12.0238 3.37284 12.1914C3.3708 12.2131 3.3708 12.235 3.37284 12.2566C3.41684 12.6743 3.5125 13.085 3.65762 13.4791C3.76358 13.7482 3.89326 14.0073 4.0451 14.2534C4.35974 14.8133 4.79045 15.2996 5.30835 15.6796C5.3471 15.7171 5.38793 15.7525 5.43064 15.7855L4.96203 16.0096C2.05657 17.5173 0.528497 19.897 0.446631 23.1814C0.414001 24.5587 0.446631 25.9361 0.446631 27.3174C0.446631 27.9327 0.703302 28.2017 1.31461 28.2017H15.3937C16.005 28.2017 16.2617 27.9327 16.2617 27.3174C16.2698 25.9238 16.2942 24.5343 16.2454 23.1447Z" fill="white"/>
<path d="M11.7746 4.93508L11.4039 1.93304L9.60979 4.21454L8.35123 0.40625L7.09266 4.21454L5.29842 1.93304L4.92789 4.93508L2.61475 3.4426L3.26228 5.46981L3.30599 5.6069L3.88992 7.43514H12.8124L13.3963 5.6069L13.4402 5.46981L14.0876 3.4426L11.7746 4.93508Z" fill="white"/>
</svg>
