<svg width="40" height="37" viewBox="0 0 40 37" fill="none" xmlns="http://www.w3.org/2000/svg">
<path d="M27.7038 4.66405C27.4638 5.48005 27.1998 6.44005 27.1998 8.28805L34.1118 15.2H35.5998V21.92L30.9198 22.952L28.0638 33.2001H23.5998V29.6H12.7998V33.2001H8.31181C6.7758 27.824 4.3998 18.7041 4.3998 15.2C4.3998 11.24 7.6398 8.00005 11.5998 8.00005H23.3598C24.1518 6.63205 25.5918 5.24005 27.7038 4.66405ZM29.5998 0.800049C24.3918 0.800049 21.5598 4.40005 21.5598 4.40005H11.5998C5.7198 4.40005 0.799805 9.12805 0.799805 15.2C0.799805 20.792 5.5998 36.8 5.5998 36.8H16.3998V33.2001H19.9998V36.8H30.7998L33.7998 26L39.1998 24.8V11.6H35.5998L30.7998 6.80005C30.7998 5.93605 31.9998 4.44805 31.9998 3.20005C31.9998 1.88005 30.9198 0.800049 29.5998 0.800049ZM22.3998 14H12.7998V10.4H22.3998V14ZM27.7998 17.6C26.8158 17.6 25.9998 16.784 25.9998 15.8C25.9998 14.816 26.8158 14 27.7998 14C28.7838 14 29.5998 14.816 29.5998 15.8C29.5998 16.784 28.7838 17.6 27.7998 17.6Z" fill="#2EA69F"/>
</svg>
