<svg width="36" height="42" viewBox="0 0 36 42" fill="none" xmlns="http://www.w3.org/2000/svg">
<path d="M26 22C20.48 22 16 26.48 16 32C16 37.52 20.48 42 26 42C31.52 42 36 37.52 36 32C36 26.48 31.52 22 26 22ZM29.3 36.7L25 32.4V26H27V31.58L30.7 35.28L29.3 36.7ZM28 4H21.64C20.8 1.68 18.6 0 16 0C13.4 0 11.2 1.68 10.36 4H4C1.8 4 0 5.8 0 8V38C0 40.2 1.8 42 4 42H16.22C15.04 40.86 14.08 39.5 13.38 38H4V8H8V14H24V8H28V18.16C29.42 18.36 30.76 18.78 32 19.36V8C32 5.8 30.2 4 28 4ZM16 8C14.9 8 14 7.1 14 6C14 4.9 14.9 4 16 4C17.1 4 18 4.9 18 6C18 7.1 17.1 8 16 8Z" fill="#F75B7C"/>
</svg>
