<svg width="48" height="48" viewBox="0 0 48 48" fill="none" xmlns="http://www.w3.org/2000/svg">
<path d="M46.5938 21.3887C45.9334 21.3887 30.3147 21.3887 29.6212 21.3887C30.506 20.2127 31.0312 18.7516 31.0312 17.1699C31.0312 16.3933 30.4016 15.7637 29.625 15.7637H17.3007C15.6924 15.7637 14.2465 16.6573 13.5275 18.0957L12.2695 20.6114C12.0298 21.0908 11.5479 21.3887 11.0118 21.3887C8.06916 21.3887 4.35413 21.3887 1.40625 21.3887C0.629625 21.3887 0 22.0183 0 22.7949V39.6699C0 40.4465 0.629625 41.0762 1.40625 41.0762C1.76222 41.0762 14.5555 41.0762 14.98 41.0762L18.964 45.0603C20.0935 46.1897 21.7315 46.5816 23.2463 46.0909L36.6334 42.3243C37.4292 42.1004 38.1168 41.6638 38.6406 41.0762C39.5785 41.0762 45.6855 41.0762 46.5938 41.0762C47.3704 41.0762 48 40.4465 48 39.6699V22.7949C48 22.0182 47.3704 21.3887 46.5938 21.3887ZM5.625 38.2637H2.8125V24.2012H5.625V38.2637ZM36.8513 38.6186C36.7901 38.8531 36.5721 39.4198 35.8717 39.6168C35.8199 39.6313 22.4429 43.3942 22.3919 43.4111C21.8833 43.5809 21.3318 43.4505 20.9528 43.0715L16.5568 38.6755C16.2931 38.4118 15.9354 38.2636 15.5625 38.2636C14.1802 38.2636 10.1243 38.2636 8.4375 38.2636V24.2011H11.0118C12.6202 24.2011 14.0661 23.3075 14.7851 21.869L16.0431 19.3534C16.2828 18.8739 16.7647 18.5667 17.3007 18.5667H27.9778C27.3975 20.2037 25.8335 21.3886 24.0001 21.3886H24H22.9257C21.3174 21.3886 19.8715 22.2822 19.1525 23.7206L14.8707 32.284C14.6982 32.6289 14.675 33.0296 14.8063 33.3921C14.9378 33.7547 15.2123 34.0474 15.5658 34.2017C18.9939 35.6982 22.9905 34.248 24.6645 30.8999L25.2015 29.8261H28.4602C28.8358 29.8261 29.1889 29.9723 29.4545 30.2379L36.4852 37.2687C36.9996 37.7832 36.9126 38.384 36.8513 38.6186ZM39.4688 36.8452C39.2623 36.269 38.9282 35.7343 38.4739 35.28L31.4432 28.2492C30.6464 27.4523 29.5869 27.0136 28.4602 27.0136H24.3324C23.7997 27.0136 23.3128 27.3145 23.0747 27.791L22.149 29.6421C21.3802 31.1801 19.7976 32.0516 18.1713 31.972L21.6682 24.9784C21.9079 24.4989 22.3898 24.2011 22.9258 24.2011C23.6136 24.2011 38.7508 24.2011 39.4688 24.2011C39.4688 24.8491 39.4688 36.2193 39.4688 36.8452ZM45.1875 38.2637C44.0584 38.2637 43.9708 38.2637 42.2812 38.2637C42.2812 37.6457 42.2812 24.8179 42.2812 24.2012H45.1875V38.2637Z" fill="#F75B7C"/>
<path d="M24 1.70117C23.2234 1.70117 22.5938 2.3307 22.5938 3.10742V7.32617C22.5938 8.1028 23.2234 8.73242 24 8.73242C24.7766 8.73242 25.4062 8.1028 25.4062 7.32617V3.10742C25.4062 2.3308 24.7766 1.70117 24 1.70117Z" fill="#F75B7C"/>
<path d="M16.5569 10.5506L13.7444 7.73806C13.1952 7.18888 12.3047 7.18888 11.7556 7.73806C11.2065 8.28725 11.2065 9.17759 11.7556 9.72678L14.5681 12.5393C15.1172 13.0885 16.0078 13.0885 16.5569 12.5393C17.106 11.9901 17.106 11.0997 16.5569 10.5506Z" fill="#F75B7C"/>
<path d="M36.2444 7.73806C35.6952 7.18888 34.8047 7.18888 34.2556 7.73806L31.4431 10.5506C30.894 11.0997 30.894 11.9901 31.4431 12.5393C31.9922 13.0885 32.8828 13.0885 33.4319 12.5393L36.2444 9.72678C36.7936 9.17759 36.7936 8.28725 36.2444 7.73806Z" fill="#F75B7C"/>
</svg>
