<svg width="39" height="44" viewBox="0 0 39 44" fill="none" xmlns="http://www.w3.org/2000/svg">
<path d="M30.9642 13.384L29.1121 10.078C29.001 9.85 28.7417 9.774 28.5565 9.85L26.2599 10.8C25.7783 10.42 25.2597 10.116 24.7041 9.888L24.3707 7.38C24.2966 7.152 24.0744 7 23.8521 7H20.1479C19.9256 7 19.7404 7.152 19.7034 7.418L19.333 9.926C18.7773 10.154 18.2587 10.496 17.7772 10.838L15.4806 9.888C15.2583 9.812 15.0361 9.888 14.9249 10.116L13.0728 13.422C12.9617 13.612 12.9987 13.878 13.1839 13.992L15.1472 15.55C15.0731 15.854 15.0361 16.196 15.0361 16.5C15.0361 16.804 15.0731 17.146 15.1101 17.412L13.1839 19.008C12.9987 19.122 12.9617 19.388 13.0358 19.616L14.8879 22.922C14.999 23.15 15.2583 23.226 15.4435 23.15L17.7401 22.2C18.2217 22.58 18.7403 22.884 19.2959 23.112L19.6293 25.62C19.7404 25.848 19.9256 26 20.1479 26H23.8521C24.0744 26 24.2966 25.848 24.2966 25.582L24.63 23.074C25.1856 22.846 25.7042 22.504 26.1858 22.162L28.4824 23.112C28.7046 23.188 28.9269 23.112 29.038 22.884L30.8901 19.578C31.0013 19.35 30.9642 19.122 30.779 18.97L28.8528 17.412C28.8899 17.108 28.9269 16.804 28.9269 16.5C28.9269 16.196 28.8899 15.854 28.8528 15.588L30.8161 14.03C31.0013 13.878 31.0383 13.612 30.9642 13.384ZM22 20.3C19.9627 20.3 18.2958 18.59 18.2958 16.5C18.2958 14.41 19.9627 12.7 22 12.7C24.0373 12.7 25.7042 14.41 25.7042 16.5C25.7042 18.59 24.0373 20.3 22 20.3Z" fill="#F75B7C"/>
<path d="M22.389 0C13.8621 0 6.88547 6.41667 5.96264 14.6667L0.314906 22.8067C-0.497186 24.0167 0.351819 25.6667 1.82835 25.6667H5.77807V33C5.77807 35.0167 7.43917 36.6667 9.46939 36.6667H13.1607V44H31.6173V30.2133C36.0839 27.2433 39 22.22 39 16.5C39 7.37 31.5804 0 22.389 0ZM27.926 28.05V40.3333H16.852V33H9.46939V22H5.37202L9.54322 15.9867C9.80161 9.16667 15.4124 3.66667 22.389 3.66667C29.5133 3.66667 35.3087 9.42333 35.3087 16.5C35.3087 21.5967 32.2818 25.9967 27.926 28.05Z" fill="#F75B7C"/>
</svg>
