<svg width="40" height="24" viewBox="0 0 40 24" fill="none" xmlns="http://www.w3.org/2000/svg">
<path d="M38.4224 2.06647C38.6868 1.16412 38.4224 0.5 37.1502 0.5H32.9405C31.8684 0.5 31.3753 1.07028 31.1108 1.70553C31.1108 1.70553 28.9667 6.98244 25.9363 10.4041C24.9571 11.3931 24.5069 11.7107 23.9708 11.7107C23.7064 11.7107 23.299 11.3931 23.299 10.4907V2.06647C23.299 0.983656 22.9988 0.5 22.1126 0.5H15.4943C14.8225 0.5 14.4223 1.00531 14.4223 1.47453C14.4223 2.49959 15.9375 2.73781 16.0947 5.62531V11.8912C16.0947 13.2627 15.8517 13.5154 15.3157 13.5154C13.8862 13.5154 10.4127 8.21684 8.35434 2.15309C7.9398 0.976438 7.53241 0.5 6.45319 0.5H2.24353C1.04281 0.5 0.799805 1.07028 0.799805 1.70553C0.799805 2.83166 2.22923 8.42619 7.45379 15.8182C10.9345 20.8641 15.8374 23.6 20.2972 23.6C22.9774 23.6 23.3062 22.9936 23.3062 21.9469C23.3062 17.1248 23.0632 16.67 24.4068 16.67C25.0286 16.67 26.1007 16.9876 28.6022 19.4203C31.461 22.3078 31.9328 23.6 33.5337 23.6H37.7434C38.9441 23.6 39.5516 22.9936 39.2014 21.7953C38.4009 19.276 32.9905 14.0929 32.7475 13.7464C32.1257 12.9379 32.3044 12.577 32.7475 11.8551C32.7547 11.8479 37.8935 4.5425 38.4224 2.06647Z" fill="#139BEA"/>
</svg>
