<svg width="40" height="40" viewBox="0 0 40 40" fill="none" xmlns="http://www.w3.org/2000/svg">
<path fill-rule="evenodd" clip-rule="evenodd" d="M38.5717 17.6266H36.9927C36.7964 16.249 36.4201 14.9206 35.9292 13.6659L37.3036 12.8459C37.6145 12.6819 37.7372 12.2719 37.5736 12.0259L35.7083 8.74581C35.602 8.4588 35.2175 8.3768 34.8902 8.58181L33.4994 9.36083C32.6813 8.344 31.6996 7.35997 30.6361 6.53995L31.4378 5.14592C31.6014 4.81791 31.536 4.4489 31.2578 4.2849L28.0181 2.43985C27.74 2.27584 27.3637 2.40705 27.2 2.71045L26.3819 4.10449C25.1384 3.61248 23.8213 3.24347 22.455 3.03846V1.45582C22.455 1.09501 22.1851 0.799805 21.866 0.799805H18.1518C17.8246 0.799805 17.5791 1.09501 17.5791 1.45582V3.06306C16.1884 3.25987 14.8794 3.62068 13.6277 4.12909L12.8096 2.73505C12.646 2.42345 12.3187 2.30044 11.9915 2.45625L8.79269 4.3259C8.51453 4.4899 8.4409 4.85891 8.6127 5.17052L9.41444 6.56455C8.35091 7.41738 7.36918 8.385 6.52654 9.46743L5.13576 8.66381C4.84124 8.4178 4.45673 8.4998 4.30129 8.82781L2.50146 12.0259C2.33784 12.2719 2.46874 12.6819 2.77962 12.8459L4.15404 13.6659C3.66317 14.896 3.3032 16.208 3.0905 17.602H1.45429C1.1025 17.602 0.799805 17.848 0.799805 18.1761V21.899C0.799805 22.227 1.1025 22.473 1.45429 22.473H3.04141C3.23776 23.867 3.59772 25.179 4.10495 26.4419L2.73871 27.2619C2.41147 27.4259 2.29693 27.7867 2.46056 28.0819L4.31765 31.2964C4.48127 31.567 4.86578 31.649 5.16848 31.4604L6.53472 30.6814C7.39373 31.7638 8.36727 32.7314 9.43899 33.5925L8.65361 34.9537C8.48999 35.2817 8.50635 35.6343 8.81723 35.7983L12.0078 37.6598C12.2778 37.8238 12.6623 37.6926 12.8259 37.3892L13.6031 36.0197C14.8467 36.5363 16.172 36.8971 17.5546 37.0857V38.6438C17.5546 39.021 17.8164 39.2998 18.1273 39.2998H21.8824C22.2096 39.2998 22.455 39.021 22.455 38.6438V37.0857C23.8458 36.9053 25.1793 36.5363 26.4392 36.0197L27.2164 37.3892C27.3964 37.6844 27.7645 37.7992 28.0345 37.6516L31.2578 35.7655C31.5442 35.6015 31.6178 35.2161 31.4378 34.9045L30.6606 33.5679C31.7242 32.7232 32.7059 31.7474 33.5567 30.665L34.9229 31.4686C35.2338 31.6572 35.6183 31.5752 35.7738 31.3046L37.6391 28.0737C37.8027 27.8031 37.68 27.4177 37.3691 27.2537L36.0028 26.4665C36.5101 25.2364 36.87 23.8998 37.0664 22.514H38.6453C38.9726 22.514 39.2998 22.268 39.2998 21.94V18.2499C39.2998 17.9218 38.9726 17.6758 38.6453 17.6758L38.5717 17.6266Z" fill="#139BEA"/>
<path fill-rule="evenodd" clip-rule="evenodd" d="M26.5465 21.3471C26.2552 20.7309 25.7607 20.0999 25.0516 19.4579L25.0172 19.4468C25.3315 18.9228 25.5538 18.4801 25.6688 18.1258C25.7837 17.7716 25.8489 17.3473 25.8489 16.8565C25.8489 15.6057 25.4656 14.5209 24.7373 13.5984C23.9708 12.676 22.9857 12.0708 21.786 11.783C21.7423 11.7754 21.7006 11.7681 21.6599 11.7609C21.5224 11.7365 21.3973 11.7144 21.2493 11.6945C21.0577 11.6723 20.8661 11.6502 20.6361 11.6354C20.3678 11.6133 20.0995 11.5985 19.7928 11.5985L19.6585 11.5954C19.3593 11.5884 19.005 11.5801 18.5931 11.5801H16.117C15.2431 11.5801 14.5455 11.8531 13.9705 12.3918C13.4263 12.9158 13.1273 13.6095 13.1196 14.4581V24.8598C13.1196 25.3985 13.1273 25.7564 13.1388 25.9298C13.1503 26.1106 13.1618 26.2508 13.1771 26.3615C13.2385 26.5829 13.3228 26.7969 13.4454 27.0257C13.5681 27.2545 13.7176 27.4685 13.8939 27.653C14.2005 27.9851 14.5455 28.2433 14.8905 28.354C15.2354 28.4647 15.7337 28.5201 16.3853 28.5201H20.9849C21.5598 28.5201 22.0198 28.5053 22.4414 28.4684C22.8247 28.4352 23.208 28.3688 23.5146 28.2765C23.8213 28.1843 24.1279 28.0588 24.3962 27.9002C24.6607 27.7378 24.9328 27.5312 25.2165 27.2729C26.3932 26.2435 26.9796 24.9815 26.9796 23.4945C26.9796 22.6754 26.8378 21.9669 26.5465 21.3471ZM18.9189 23.299H19.858C20.3678 23.299 20.7012 23.2547 20.8737 23.1624C21.0462 23.0702 21.119 22.8931 21.119 22.6459C21.119 22.3876 21.0194 22.2031 20.8124 22.0924C20.6054 21.9817 20.2988 21.9374 19.8388 21.9374H18.9189V23.299ZM19.5743 18.1332H18.8844L18.9036 18.1221V16.8307H19.5168C19.927 16.8307 20.2106 16.875 20.3869 16.9783C20.5594 17.0816 20.6476 17.2477 20.6476 17.4875C20.6476 17.7273 20.5709 17.8897 20.4176 17.9856C20.2528 18.0779 19.973 18.1332 19.5743 18.1332Z" fill="#FAFAFA"/>
</svg>
