<svg width="40" height="40" viewBox="0 0 40 40" fill="none" xmlns="http://www.w3.org/2000/svg">
<path d="M33.659 6.42735C41.1801 13.9513 41.1801 26.1342 33.659 33.6568C26.1391 41.1808 13.9608 41.1808 6.43968 33.6568C-1.08015 26.1342 -1.08015 13.9513 6.43968 6.42735C13.9608 -1.07604 26.1584 -1.07604 33.659 6.42735ZM31.8451 8.24316C25.3317 1.72729 14.767 1.72729 8.25481 8.24316C1.74267 14.7577 1.74267 25.3265 8.25481 31.8423C14.767 38.3569 25.3317 38.3569 31.8451 31.8423C38.3573 25.3265 38.3573 14.7577 31.8451 8.24316Z" fill="#2EB3DF"/>
<path d="M36.6037 7.33526C36.6037 7.84118 36.5041 8.34214 36.3106 8.80955C36.1171 9.27695 35.8334 9.70165 35.4758 10.0594C35.1182 10.4171 34.6936 10.7009 34.2264 10.8945C33.7592 11.0881 33.2584 11.1878 32.7527 11.1878C32.247 11.1878 31.7462 11.0881 31.2789 10.8945C30.8117 10.7009 30.3872 10.4171 30.0296 10.0594C29.672 9.70165 29.3883 9.27695 29.1948 8.80955C29.0012 8.34214 28.9016 7.84118 28.9016 7.33526C28.9016 6.31351 29.3074 5.33361 30.0296 4.61113C30.7518 3.88864 31.7313 3.48275 32.7527 3.48275C33.774 3.48275 34.7536 3.88864 35.4758 4.61113C36.198 5.33361 36.6037 6.31351 36.6037 7.33526ZM28.2161 11.8735C29.2898 12.9455 30.1416 14.2187 30.7228 15.6204C31.3039 17.0221 31.6031 18.5246 31.6031 20.0421C31.6031 21.5596 31.3039 23.0621 30.7228 24.4638C30.1416 25.8655 29.2898 27.1387 28.2161 28.2107C27.1446 29.2851 25.8718 30.1375 24.4705 30.7191C23.0693 31.3007 21.5671 31.6001 20.05 31.6001C18.5329 31.6001 17.0307 31.3007 15.6294 30.7191C14.2281 30.1375 12.9553 29.2851 11.8838 28.2107C10.8101 27.1387 9.95834 25.8655 9.37716 24.4638C8.79598 23.0621 8.49683 21.5596 8.49683 20.0421C8.49683 18.5246 8.79598 17.0221 9.37716 15.6204C9.95834 14.2187 10.8101 12.9455 11.8838 11.8735C16.3998 7.37507 23.7194 7.37507 28.2161 11.8735Z" fill="#2EB3DF"/>
</svg>
