<svg width="25" height="25" viewBox="0 0 25 25" fill="none" xmlns="http://www.w3.org/2000/svg">
<path d="M12.5 0C14.1415 0 15.767 0.323322 17.2835 0.951506C18.8001 1.57969 20.1781 2.50043 21.3388 3.66117C22.4996 4.8219 23.4203 6.19989 24.0485 7.71646C24.6767 9.23303 25 10.8585 25 12.5C25 15.8152 23.683 18.9946 21.3388 21.3388C18.9946 23.683 15.8152 25 12.5 25C6.75 25 1.9375 21.15 0.45 15.9125L5.2375 17.8875C5.5625 19.5 7 20.725 8.7125 20.725C10.6625 20.725 12.25 19.1375 12.25 17.1875V17.025L16.5 13.9875H16.6C19.2 13.9875 21.3125 11.875 21.3125 9.275C21.3125 6.675 19.2 4.5625 16.6 4.5625C14 4.5625 11.875 6.675 11.875 9.275V9.3375L8.9125 13.6625L8.7125 13.65C7.975 13.65 7.2875 13.875 6.725 14.2625L0 11.5C0.5375 5.0625 5.9125 0 12.5 0ZM7.85 18.9625C8.85 19.375 10 18.9125 10.4125 17.9125C10.825 16.9125 10.35 15.775 9.375 15.3625L7.775 14.7C8.3875 14.475 9.075 14.4625 9.725 14.7375C10.3875 15 10.9 15.5125 11.1625 16.175C11.4375 16.825 11.4375 17.55 11.1625 18.2C10.625 19.55 9.0375 20.2 7.6875 19.6375C7.0625 19.375 6.5875 18.9 6.325 18.3375L7.85 18.9625ZM19.75 9.275C19.75 11.0125 18.3375 12.425 16.6 12.425C14.875 12.425 13.4625 11.0125 13.4625 9.275C13.4608 8.86251 13.5409 8.45378 13.698 8.07238C13.855 7.69097 14.0861 7.34444 14.3778 7.05277C14.6694 6.76109 15.016 6.53005 15.3974 6.37296C15.7788 6.21587 16.1875 6.13585 16.6 6.1375C18.3375 6.1375 19.75 7.55 19.75 9.275ZM14.25 9.275C14.25 10.575 15.3 11.6375 16.6125 11.6375C17.9125 11.6375 18.9625 10.575 18.9625 9.275C18.9625 7.975 17.9125 6.9125 16.6125 6.9125C15.3 6.9125 14.25 7.975 14.25 9.275Z" fill="white"/>
</svg>
