<svg width="22" height="16" viewBox="0 0 22 16" fill="none" xmlns="http://www.w3.org/2000/svg">
<path fill-rule="evenodd" clip-rule="evenodd" d="M11.0002 14.25C6.87871 14.25 3.32737 11.6818 1.80636 7.99832C3.27561 4.40628 6.88252 1.75 11.0002 1.75C15.1179 1.75 18.7248 4.40623 20.1941 7.99821C18.6731 11.6818 15.1217 14.25 11.0002 14.25ZM21.7025 7.73666C21.7703 7.91761 21.7638 8.10824 21.6981 8.2749C20.0312 12.6405 15.8778 15.75 11.0002 15.75C6.11964 15.75 1.96423 12.6368 0.299348 8.26703C0.230535 8.08642 0.23612 7.89573 0.300978 7.72872C1.90611 3.45831 6.12131 0.25 11.0002 0.25C15.8822 0.25 20.0996 3.46229 21.7025 7.73666ZM7.75024 8C7.75024 6.20507 9.20532 4.75 11.0002 4.75C12.7952 4.75 14.2502 6.20507 14.2502 8C14.2502 9.79493 12.7952 11.25 11.0002 11.25C9.20532 11.25 7.75024 9.79493 7.75024 8ZM11.0002 3.25C8.37689 3.25 6.25024 5.37665 6.25024 8C6.25024 10.6234 8.37689 12.75 11.0002 12.75C13.6236 12.75 15.7502 10.6234 15.7502 8C15.7502 5.37665 13.6236 3.25 11.0002 3.25Z" fill="white"/>
</svg>
