<svg width="22" height="22" viewBox="0 0 22 22" fill="none" xmlns="http://www.w3.org/2000/svg">
<path d="M1.62451 6.04872C2.29695 4.64745 3.24704 3.46309 4.44441 2.47829C6.06694 1.13775 7.92807 0.330828 10.0148 0.0835443C12.4659 -0.207122 14.7696 0.257077 16.8997 1.53254C17.429 1.84924 17.9235 2.20932 18.3964 2.59976C18.5135 2.69521 18.5005 2.7516 18.4008 2.84705C17.4333 3.81015 16.4659 4.77326 15.5071 5.74504C15.3943 5.85783 15.3336 5.84916 15.2121 5.75805C12.4009 3.59324 8.30117 4.17891 6.20577 7.04219C5.83701 7.54544 5.53767 8.08772 5.32943 8.67774C5.31207 8.72979 5.27737 8.77752 5.25134 8.82958C4.6917 8.40442 4.12772 7.97927 3.57241 7.54977C2.92167 7.05087 2.27092 6.55196 1.62451 6.04872Z" fill="white"/>
<path d="M5.25128 12.8989C5.43783 13.3111 5.59401 13.7406 5.82828 14.1267C6.81307 15.7405 8.21869 16.7774 10.0711 17.1461C11.7414 17.4802 13.3466 17.2546 14.8433 16.4173C14.8953 16.3913 14.9474 16.3652 14.9951 16.3392C15.0212 16.3652 15.0428 16.3956 15.0689 16.4173C16.1882 17.285 17.3118 18.1526 18.4311 19.0203C17.8931 19.5539 17.2814 19.9834 16.6307 20.3565C14.7435 21.4324 12.7002 21.8662 10.5484 21.7014C7.86728 21.4931 5.55496 20.4346 3.64611 18.5257C2.80881 17.6884 2.11902 16.7427 1.62012 15.6624C2.08432 15.3067 2.54852 14.9553 3.01271 14.5995C3.7589 14.0312 4.50509 13.4672 5.25128 12.8989Z" fill="white"/>
<path d="M18.4355 19.0204C17.3162 18.1527 16.1926 17.285 15.0733 16.4174C15.0473 16.3957 15.0213 16.3653 14.9996 16.3393C15.3857 16.0399 15.7805 15.7493 16.0972 15.3675C16.6264 14.7341 16.9778 14.0183 17.16 13.2157C17.1817 13.1159 17.1644 13.0812 17.0646 13.0855C17.0125 13.0899 16.9648 13.0855 16.9128 13.0855C15.1427 13.0855 13.3684 13.0812 11.5983 13.0899C11.4031 13.0899 11.3597 13.0378 11.3641 12.8513C11.3727 11.5932 11.3727 10.3351 11.3641 9.07695C11.3641 8.91643 11.4074 8.87305 11.568 8.87305C14.813 8.87739 18.0581 8.87739 21.3075 8.87305C21.4463 8.87305 21.5027 8.90775 21.5374 9.05526C21.802 10.2483 21.7847 11.4457 21.6242 12.6517C21.494 13.6148 21.2597 14.5476 20.8997 15.4499C20.366 16.7818 19.5808 17.9445 18.5483 18.9423C18.5093 18.9726 18.4702 18.9943 18.4355 19.0204Z" fill="white"/>
<path d="M5.25143 12.899C4.50524 13.4673 3.75905 14.0313 3.01286 14.5996C2.54866 14.951 2.08447 15.3067 1.62027 15.6625C1.26019 14.9944 1.02592 14.2872 0.835033 13.5584C0.470615 12.1484 0.414217 10.7168 0.613779 9.2808C0.769958 8.15284 1.09533 7.06826 1.62027 6.0531C2.27101 6.55201 2.91742 7.05525 3.56817 7.55416C4.12781 7.98365 4.68745 8.4088 5.24709 8.83396C5.15165 9.29816 5.01716 9.75368 4.97378 10.2309C4.89569 11.0986 4.97812 11.9445 5.2254 12.7775C5.24275 12.8122 5.24709 12.8556 5.25143 12.899Z" fill="white"/>
</svg>
