<svg width="27" height="21" viewBox="0 0 27 21" fill="none" xmlns="http://www.w3.org/2000/svg">
<path d="M25.9011 7.58283C25.7229 7.46568 25.5382 7.35881 25.3478 7.26274C24.7401 6.97152 24.1042 6.7432 23.45 6.58136C22.1103 6.2368 20.7469 5.99225 19.3709 5.84973C18.9963 5.80784 18.6255 5.76905 18.2552 5.73532C17.9386 5.70651 17.6223 5.68121 17.304 5.66222C16.3803 5.60735 15.4383 5.54331 14.5237 5.54331C12.8565 5.50283 11.1883 5.5471 9.52553 5.67595C9.26086 5.69704 8.99543 5.71779 8.73016 5.74034C8.36296 5.7715 7.99607 5.80648 7.63233 5.85428C6.84578 5.95034 6.05923 6.0692 5.27728 6.20184C4.44168 6.34288 3.61779 6.54619 2.81249 6.81005C2.29113 6.96934 1.78949 7.18716 1.31716 7.45935C1.05706 7.60109 0.829612 7.79583 0.649512 8.03099C0.538353 8.16543 0.477539 8.33441 0.477539 8.50885C0.477539 8.68329 0.538353 8.85228 0.649512 8.98671C0.725768 9.09191 0.814865 9.18717 0.914736 9.27028C1.16301 9.49055 1.44178 9.67383 1.74243 9.81445C2.39315 10.1072 3.06984 10.3384 3.76365 10.5049C4.48305 10.6985 5.21283 10.8512 5.94949 10.9622L7.77865 11.2092C8.14905 11.2549 8.51489 11.2823 8.88529 11.3189C8.8704 11.3033 8.85137 11.2922 8.83042 11.2869C8.53774 11.1634 8.24054 11.0491 7.95699 10.9119C7.66613 10.7817 7.4071 10.5898 7.19789 10.3495C7.06043 10.2071 6.9836 10.0169 6.9836 9.81898C6.9836 9.62107 7.06043 9.43089 7.19789 9.28851C7.36751 9.09297 7.5703 8.92889 7.79694 8.80381C8.37279 8.49127 8.98801 8.25748 9.6261 8.1087C10.0273 8.00789 10.4315 7.92128 10.8387 7.84889C11.391 7.74988 11.9471 7.67644 12.507 7.62857C13.3073 7.55541 14.1076 7.52338 14.9078 7.52338C15.4147 7.52042 15.9212 7.53377 16.4272 7.56342C17.1182 7.60296 17.8068 7.67192 18.493 7.77032C19.3235 7.88086 20.1423 8.06606 20.9395 8.32367C21.3777 8.46014 21.7959 8.65389 22.1833 8.89989C22.3848 9.01571 22.5606 9.1713 22.7001 9.35718C22.7979 9.48432 22.851 9.64028 22.851 9.80074C22.851 9.9612 22.7979 10.1172 22.7001 10.2443C22.5749 10.4141 22.42 10.5597 22.2428 10.6741L22.1696 10.7291H22.229C22.8788 10.5926 23.5201 10.4185 24.1496 10.2077C24.7017 10.0447 25.2316 9.81429 25.7273 9.52179C25.9147 9.43083 26.0818 9.30292 26.2185 9.14575C26.3553 8.98859 26.4588 8.8054 26.523 8.60721V8.41058C26.4317 8.06403 26.2085 7.76694 25.9011 7.58283Z" fill="white"/>
<path d="M21.6437 12.2929C20.5645 12.4896 19.4807 12.6496 18.3878 12.7502C17.5659 12.8261 16.7744 12.89 15.9252 12.9354C15.853 12.9393 15.7812 12.9433 15.708 12.9469C14.7752 12.9926 13.8834 12.988 12.9049 12.9926C12.2861 12.9955 11.6675 12.9747 11.0499 12.9406C10.6907 12.9208 10.3318 12.8977 9.9736 12.8691C9.38368 12.8234 8.78924 12.7777 8.20387 12.7091C7.47224 12.6176 6.74055 12.517 6.01348 12.4027C5.05475 12.2532 4.10515 12.0501 3.16912 11.7945C2.53479 11.6346 1.91401 11.4251 1.31251 11.168C1.09304 11.0674 0.859827 10.9485 0.635742 10.8341V10.8707C0.821695 11.6482 1.00157 12.4164 1.17536 13.1755C1.5168 14.6998 1.85672 16.2241 2.19512 17.7484C2.28657 18.1645 2.37802 18.5807 2.47402 18.9922C2.47774 19.0057 2.4841 19.0183 2.49274 19.0293C2.50138 19.0403 2.51212 19.0494 2.52434 19.0562L3.77274 19.3032V19.2346C3.82306 18.1782 3.87336 17.1082 3.93279 16.0335C3.93876 15.7092 3.99112 15.3874 4.08828 15.0778C4.11302 14.9975 4.1594 14.9256 4.22233 14.87C4.28526 14.8143 4.3623 14.7771 4.445 14.7623C4.5185 14.7477 4.59472 14.7567 4.66284 14.7879C4.73097 14.8191 4.78754 14.8709 4.82452 14.9361C4.8849 15.0241 4.93405 15.1194 4.97084 15.2196C5.03536 15.4099 5.08882 15.6038 5.13093 15.8003C5.21321 16.2165 5.28637 16.6326 5.35497 17.0533C5.42727 17.5148 5.49246 17.9733 5.55901 18.4315C5.58081 18.5818 5.6022 18.7322 5.6248 18.8825C5.65682 19.1294 5.6934 19.3763 5.72999 19.6279C6.85948 19.7788 7.99815 19.8885 9.14593 19.9663C9.15506 19.9427 9.1612 19.9182 9.16422 19.8931C9.20992 18.9968 9.24655 18.1005 9.30142 17.2088C9.30674 16.7295 9.37437 16.253 9.5026 15.7912C9.52761 15.6992 9.57759 15.6159 9.647 15.5505C9.71641 15.4851 9.80256 15.4402 9.89591 15.4208C9.98314 15.3991 10.0751 15.4066 10.1576 15.4421C10.2402 15.4776 10.3089 15.5392 10.3532 15.6174C10.4601 15.7632 10.5349 15.9299 10.5727 16.1067C10.591 16.189 10.5864 16.189 10.623 16.3536C10.6596 16.5183 10.7236 16.6601 10.7464 16.8109C10.9202 17.8764 11.0848 18.9419 11.254 20.012C11.2632 20.076 11.2769 20.076 11.3272 20.076C11.7068 20.1035 12.0817 20.1035 12.4567 20.1035C13.5222 20.0988 14.5923 20.076 15.6577 20.076C15.6989 20.076 15.7401 20.0806 15.7401 20.0211C15.827 19.4266 15.9093 18.8322 16.0053 18.2377C16.0876 17.7164 16.1791 17.1951 16.2751 16.6738C16.2985 16.5468 16.3353 16.4226 16.3849 16.3034C16.4148 16.2457 16.4275 16.1806 16.4214 16.1159C16.4644 15.9157 16.5554 15.7289 16.6867 15.5717C16.7514 15.4903 16.8445 15.4363 16.9473 15.4208C17.0591 15.4094 17.1715 15.4344 17.2679 15.492C17.3644 15.5497 17.4395 15.637 17.4823 15.7409C17.5322 15.8616 17.569 15.9873 17.5921 16.1159C17.6424 16.5274 17.6927 16.939 17.7201 17.3551C17.7705 18.192 17.8024 19.0334 17.8436 19.8748C17.8414 19.9053 17.8414 19.9358 17.8436 19.9663C18.9777 19.8885 20.1301 19.7788 21.2641 19.6279L21.3464 19.0425C21.3741 18.846 21.4028 18.6438 21.4319 18.4421C21.4848 18.0758 21.5387 17.7115 21.5888 17.3871C21.6665 16.8841 21.7534 16.3857 21.8449 15.8827C21.8678 15.75 21.9226 15.6266 21.9501 15.4939C21.9775 15.2808 22.0612 15.0788 22.1924 14.9086C22.2192 14.871 22.2532 14.8391 22.2925 14.8147C22.3317 14.7904 22.3755 14.7741 22.4211 14.7669C22.5164 14.759 22.6118 14.7813 22.6939 14.8305C22.7759 14.8797 22.8404 14.9534 22.8784 15.0413C22.9251 15.1623 22.9589 15.288 22.979 15.4162C23.0339 15.9924 23.0887 16.5686 23.1207 17.1448C23.1619 17.7987 23.1756 18.448 23.203 19.0974V19.3306L24.4514 19.0837C24.4743 19.0791 24.5017 19.0197 24.5017 19.0197C24.5292 18.9145 24.5521 18.8093 24.575 18.7041C25.1572 16.0976 25.741 13.488 26.3263 10.8753V10.8296C25.9474 11.0511 25.5477 11.2349 25.1328 11.3783C23.9963 11.7767 22.8295 12.0826 21.6437 12.2929Z" fill="white"/>
<path d="M8.61506 4.62407V4.86189L9.14094 4.81614V4.66982C9.10893 4.08445 9.07691 3.49457 9.04033 2.90926C9.04033 2.84978 9.05406 2.80408 9.11348 2.80408L11.3451 2.00379L12.2002 1.70199L12.2185 1.6837L8.96717 1.19895C8.96536 1.1807 8.96536 1.16233 8.96717 1.14408L8.96681 1.13852C8.96187 1.06957 8.92974 1.00541 8.87749 0.960145C8.82525 0.914881 8.75716 0.89222 8.68821 0.897148C8.6851 0.897148 8.682 0.897198 8.67889 0.897298C8.6098 0.899736 8.54451 0.929518 8.49737 0.980092C8.45024 1.03067 8.42512 1.09789 8.42755 1.16698C8.42519 1.202 8.42519 1.23714 8.42755 1.27216C8.45501 1.74774 8.48242 2.23244 8.50527 2.68973L8.61506 4.62407Z" fill="white"/>
<path d="M3.20131 5.53403V5.7764L3.69518 5.6392C3.72259 5.63464 3.72259 5.58434 3.72259 5.58434C3.71347 5.41968 3.69062 5.25507 3.69062 5.09047C3.68145 5.01731 3.69518 4.98529 3.7729 4.95783L6.76818 3.86035L6.82992 3.83976L6.83678 3.83746L6.82611 3.836L3.59 3.38016C3.58311 3.34391 3.58311 3.30668 3.59 3.27043C3.57848 3.20069 3.53973 3.13839 3.48227 3.09722C3.42481 3.05606 3.35335 3.03941 3.28361 3.05093C3.21388 3.06245 3.15157 3.1012 3.11041 3.15866C3.06924 3.21612 3.05259 3.28758 3.06411 3.35732C3.10525 4.07983 3.151 4.80696 3.20131 5.53403Z" fill="white"/>
<path d="M13.8925 4.121L17.0981 3.14694L13.8971 2.48847C13.8997 2.46261 13.8997 2.43655 13.8971 2.4107C13.8907 2.34825 13.8624 2.29009 13.8172 2.24655C13.772 2.20302 13.7128 2.17693 13.6502 2.17293C13.6121 2.16877 13.5736 2.17304 13.5374 2.18546C13.5012 2.19787 13.4681 2.21811 13.4406 2.24475C13.4131 2.27138 13.3918 2.30375 13.3782 2.33956C13.3647 2.37536 13.3592 2.41371 13.3621 2.45189V4.43192H13.8925L13.8925 4.121Z" fill="white"/>
</svg>
