<svg width="29" height="31" viewBox="0 0 29 31" fill="none" xmlns="http://www.w3.org/2000/svg">
<path d="M4.84893 12.2638C6.17829 12.2638 7.25596 11.1861 7.25596 9.85674C7.25596 8.52737 6.17829 7.44971 4.84893 7.44971C3.51956 7.44971 2.44189 8.52737 2.44189 9.85674C2.44189 11.1861 3.51956 12.2638 4.84893 12.2638Z" fill="white"/>
<path d="M4.84893 23.545C6.17829 23.545 7.25596 22.4674 7.25596 21.138C7.25596 19.8086 6.17829 18.731 4.84893 18.731C3.51956 18.731 2.44189 19.8086 2.44189 21.138C2.44189 22.4674 3.51956 23.545 4.84893 23.545Z" fill="white"/>
<path d="M14.4973 29.0765C15.8267 29.0765 16.9043 27.9988 16.9043 26.6695C16.9043 25.3401 15.8267 24.2625 14.4973 24.2625C13.168 24.2625 12.0903 25.3401 12.0903 26.6695C12.0903 27.9988 13.168 29.0765 14.4973 29.0765Z" fill="white"/>
<path d="M24.1463 23.545C25.4757 23.545 26.5533 22.4674 26.5533 21.138C26.5533 19.8086 25.4757 18.731 24.1463 18.731C22.8169 18.731 21.7393 19.8086 21.7393 21.138C21.7393 22.4674 22.8169 23.545 24.1463 23.545Z" fill="white"/>
<path d="M24.1463 12.2638C25.4757 12.2638 26.5533 11.1861 26.5533 9.85674C26.5533 8.52737 25.4757 7.44971 24.1463 7.44971C22.8169 7.44971 21.7393 8.52737 21.7393 9.85674C21.7393 11.1861 22.8169 12.2638 24.1463 12.2638Z" fill="white"/>
<path d="M14.4973 6.73222C15.8267 6.73222 16.9043 5.65457 16.9043 4.32522C16.9043 2.99587 15.8267 1.91821 14.4973 1.91821C13.168 1.91821 12.0903 2.99587 12.0903 4.32522C12.0903 5.65457 13.168 6.73222 14.4973 6.73222Z" fill="white"/>
<path d="M14.4974 10.647C13.3732 10.6457 12.2834 11.0345 11.4138 11.747C10.5443 12.4596 9.94897 13.4517 9.72933 14.5542C9.50969 15.6568 9.67939 16.8013 10.2095 17.7927C10.7395 18.7841 11.5971 19.5608 12.636 19.9904C13.6748 20.42 14.8306 20.4759 15.906 20.1485C16.9815 19.8211 17.91 19.1307 18.5332 18.1951C19.1565 17.2595 19.4358 16.1366 19.3235 15.0181C19.2113 13.8995 18.7144 12.8545 17.9177 12.0614C17.4684 11.6126 16.9351 11.2567 16.3482 11.014C15.7613 10.7713 15.1324 10.6466 14.4974 10.647ZM16.2704 17.2859L16.4261 18.2007L14.4974 17.1609L12.5687 18.2007L12.7299 17.2492L12.9326 16.0536L11.3729 14.5304L13.2443 14.2599L13.5304 14.2184L14.4974 12.2638L15.4591 14.1977L15.7408 14.2384L17.6166 14.5096L16.057 16.0328L16.2704 17.2859Z" fill="white"/>
<path d="M21.4331 6.22755L21.3755 6.18551C20.6364 5.64621 19.837 5.19494 18.9934 4.84082C18.9597 5.13323 18.8975 5.42163 18.8076 5.70192C19.5021 6.00608 20.163 6.38179 20.7797 6.82296C20.9777 6.60386 21.1966 6.40446 21.4331 6.22755Z" fill="white"/>
<path d="M8.17258 6.76162C8.79486 6.32655 9.46042 5.95691 10.1587 5.65859C10.0724 5.37651 10.0139 5.08667 9.98416 4.79321L9.94491 4.80945C9.08066 5.16688 8.26164 5.62514 7.50488 6.1747C7.74614 6.348 7.96978 6.54458 8.17258 6.76162Z" fill="white"/>
<path d="M26.0748 17.04L26.0894 16.8988C26.1865 15.961 26.1702 15.015 26.0409 14.0811L26.0264 13.9763C25.7585 14.0996 25.4792 14.1962 25.1924 14.2647C25.301 15.0855 25.3154 15.9159 25.2355 16.7399C25.5245 16.8119 25.8057 16.9124 26.0748 17.04Z" fill="white"/>
<path d="M2.96461 13.9761L2.94962 14.0771C2.81142 15.0099 2.78602 15.9559 2.87397 16.8947L2.88901 17.0541C3.15827 16.9239 3.43991 16.8209 3.72972 16.7469C3.65715 15.9194 3.6797 15.0863 3.79694 14.2639C3.51071 14.1956 3.23192 14.0991 2.96461 13.9761Z" fill="white"/>
<path d="M20.7643 24.1541C20.1529 24.5986 19.4962 24.9772 18.8052 25.2836C18.8958 25.5642 18.9587 25.853 18.9929 26.1459L19.0025 26.1418C19.8586 25.777 20.6676 25.3102 21.4119 24.7516C21.1774 24.5737 20.9605 24.3736 20.7643 24.1541Z" fill="white"/>
<path d="M7.57275 24.7701C8.27188 25.3083 9.02899 25.7667 9.82998 26.1366L9.98362 26.2074C10.0136 25.9118 10.0726 25.62 10.1599 25.336C9.47598 25.018 8.82668 24.6303 8.22234 24.179C8.02543 24.3965 7.80788 24.5945 7.57275 24.7701Z" fill="white"/>
<path d="M4.8537 13.8061H4.85917C5.9061 13.8045 6.90971 13.3879 7.65 12.6476C8.39029 11.9074 8.80687 10.9037 8.80841 9.85682C8.80841 9.78151 8.80584 9.70677 8.80169 9.6326C8.74811 8.6638 8.33913 7.74878 7.65303 7.06269C6.96693 6.37661 6.05191 5.96764 5.08311 5.91408C5.00894 5.90998 4.93443 5.90781 4.85906 5.90747C3.81209 5.90744 2.80795 6.32315 2.06737 7.06321C1.32679 7.80327 0.910379 8.80712 0.909669 9.85409C0.908959 10.9011 1.32401 11.9055 2.06359 12.6465C2.80316 13.3876 3.80674 13.8047 4.8537 13.8061V13.8061ZM4.85422 6.81904H4.85974C5.66498 6.81913 6.43725 7.13892 7.00681 7.70814C7.57637 8.27737 7.89663 9.04944 7.89719 9.85468C7.89776 10.6599 7.57859 11.4324 7.00983 12.0025C6.44107 12.5725 5.66926 12.8934 4.86401 12.8946H4.85906C4.05377 12.8947 3.2814 12.575 2.71173 12.0058C2.14205 11.4366 1.82169 10.6645 1.82104 9.85923C1.8204 9.05394 2.13954 8.28135 2.70831 7.71127C3.27707 7.14118 4.04893 6.82026 4.85422 6.81904Z" fill="white"/>
<path d="M4.85894 12.6028L4.85889 12.8945L4.86088 12.6028L4.85894 12.6028Z" fill="white"/>
<path d="M8.8018 21.3621C8.80585 21.2896 8.80829 21.2168 8.80841 21.1434V21.138C8.80693 20.0919 8.39112 19.0891 7.65199 18.349C6.91285 17.6088 5.91059 17.1916 4.86459 17.1887H4.85878C3.81184 17.1888 2.80776 17.6045 2.06723 18.3446C1.32671 19.0846 0.910348 20.0885 0.909669 21.1354C0.908989 22.1823 1.32405 23.1867 2.06361 23.9277C2.80317 24.6688 3.80671 25.0858 4.85365 25.0872H4.85878C4.9342 25.0872 5.00905 25.0846 5.08339 25.0805C6.05215 25.0269 6.96711 24.6179 7.65317 23.9318C8.33923 23.2458 8.7482 22.3308 8.8018 21.3621ZM5.70768 24.0547C5.43353 24.1345 5.14952 24.1752 4.86402 24.1757H4.85878C4.05351 24.1757 3.2812 23.856 2.71158 23.2868C2.14197 22.7176 1.82166 21.9455 1.82105 21.1402C1.82045 20.335 2.1396 19.5624 2.70836 18.9924C3.27712 18.4223 4.04895 18.1014 4.85422 18.1002H4.85917C5.59058 18.1002 6.29744 18.3641 6.8499 18.8434C7.40236 19.3227 7.76333 19.9853 7.86651 20.7094C7.9697 21.4335 7.80816 22.1705 7.41157 22.785C7.01499 23.3996 6.40998 23.8504 5.70768 24.0547Z" fill="white"/>
<path d="M4.85889 23.8841V24.1758L4.86105 23.884L4.85889 23.8841Z" fill="white"/>
<path d="M14.4922 29.4156V29.7073L14.4947 29.4155L14.4922 29.4156Z" fill="white"/>
<path d="M14.4979 22.7253C13.9791 22.7244 13.4652 22.8257 12.9856 23.0234C12.506 23.2211 12.0701 23.5114 11.7026 23.8776C11.3352 24.2439 11.0436 24.6789 10.8444 25.1579C10.6451 25.6369 10.5422 26.1504 10.5415 26.6692C10.5408 27.1879 10.6423 27.7018 10.8402 28.1813C11.0381 28.6608 11.3286 29.0966 11.695 29.4639C12.0614 29.8311 12.4966 30.1226 12.9756 30.3216C13.4547 30.5206 13.9683 30.6233 14.4871 30.6238H14.4928C15.5397 30.6238 16.5438 30.208 17.2843 29.4679C18.0248 28.7279 18.4412 27.724 18.4419 26.6771C18.4425 25.6302 18.0275 24.6258 17.2879 23.8848C16.5483 23.1438 15.5448 22.7267 14.4979 22.7253H14.4979ZM17.5303 26.6746C17.5294 27.4787 17.2095 28.2495 16.6409 28.8181C16.0723 29.3866 15.3014 29.7064 14.4974 29.7072H14.4924C13.6871 29.7073 12.9147 29.3876 12.345 28.8184C11.7754 28.2492 11.455 27.4771 11.4543 26.6718C11.4537 25.8665 11.7728 25.0939 12.3416 24.5238C12.9104 23.9537 13.6823 23.6328 14.4876 23.6316H14.4925C15.297 23.6325 16.0683 23.9522 16.6377 24.5206C17.207 25.0889 17.528 25.8597 17.5303 26.6642L17.5303 26.6746Z" fill="white"/>
<path d="M24.1467 17.1887H24.1408C23.0944 17.1888 22.0909 17.6042 21.3505 18.3436C20.6101 19.083 20.1934 20.0861 20.1919 21.1325C20.1918 21.2147 20.1949 21.3008 20.2018 21.4034C20.2677 22.3561 20.676 23.2528 21.3513 23.928C22.0265 24.6033 22.9232 25.0115 23.8758 25.0775C23.9764 25.0842 24.0608 25.085 24.1415 25.0872C25.1885 25.0872 26.1925 24.6714 26.9331 23.9313C27.6736 23.1913 28.09 22.1875 28.0906 21.1405C28.0913 20.0936 27.6763 19.0892 26.9367 18.3482C26.1971 17.6072 25.1936 17.1901 24.1467 17.1887H24.1467ZM27.179 21.138C27.1778 21.9424 26.8581 22.7137 26.2897 23.283C25.7213 23.8523 24.9505 24.1733 24.1461 24.1757H24.1361C23.3313 24.1744 22.5599 23.8537 21.9913 23.2842C21.4227 22.7146 21.1034 21.9427 21.1034 21.1379C21.1034 20.3331 21.4228 19.5612 21.9914 18.9916C22.5601 18.4221 23.3315 18.1015 24.1363 18.1002H24.1412C24.9457 18.1011 25.717 18.4208 26.2864 18.9891C26.8557 19.5575 27.1767 20.3282 27.179 21.1327V21.138Z" fill="white"/>
<path d="M20.2017 9.59147C20.1951 9.69025 20.192 9.77285 20.1919 9.85135C20.1912 10.37 20.2926 10.8837 20.4904 11.3631C20.6882 11.8425 20.9785 12.2783 21.3448 12.6455C21.711 13.0128 22.146 13.3043 22.6248 13.5034C23.1037 13.7025 23.6171 13.8054 24.1358 13.8061H24.1412C25.1882 13.8061 26.1924 13.3904 26.933 12.6503C27.6736 11.9103 28.09 10.9064 28.0907 9.85947C28.0914 8.81249 27.6764 7.80807 26.9368 7.06701C26.1972 6.32594 25.1936 5.90886 24.1467 5.90747H24.1466C24.0657 5.90872 23.9795 5.91055 23.8757 5.91739C22.9231 5.98333 22.0264 6.39159 21.3511 7.06685C20.6759 7.74211 20.2676 8.6388 20.2017 9.59147ZM23.2444 6.95382C23.5333 6.86474 23.834 6.81931 24.1363 6.81904H24.1415C24.9463 6.8191 25.7181 7.13846 26.2876 7.70702C26.857 8.27557 27.1777 9.04687 27.179 9.85158V9.85682C27.1778 10.6613 26.8581 11.4325 26.2897 12.0018C25.7213 12.5711 24.9506 12.8921 24.1461 12.8946H24.1411C23.4138 12.8947 22.7107 12.6339 22.1594 12.1597C21.6081 11.6854 21.2452 11.0291 21.1367 10.31C21.0281 9.59092 21.1812 8.85675 21.5679 8.2409C21.9547 7.62504 22.5496 7.16836 23.2444 6.95383L23.2444 6.95382Z" fill="white"/>
<path d="M24.1411 12.6028V12.8945L24.1432 12.6028L24.1411 12.6028Z" fill="white"/>
<path d="M14.487 8.27456H14.4925C15.5394 8.27459 16.5436 7.85888 17.2842 7.11882C18.0247 6.37876 18.4412 5.37491 18.4419 4.32794C18.4426 3.28097 18.0275 2.27656 17.2879 1.5355C16.5484 0.794438 15.5448 0.37737 14.4978 0.375977H14.4924C13.4454 0.375951 12.4413 0.791657 11.7007 1.53172C10.9601 2.27178 10.5437 3.27562 10.543 4.32259C10.5423 5.36956 10.9573 6.37397 11.6969 7.11504C12.4365 7.8561 13.44 8.27317 14.487 8.27456ZM12.3409 2.17554C12.6218 1.8921 12.9562 1.66721 13.3247 1.51389C13.6932 1.36057 14.0884 1.28185 14.4875 1.28231H14.4927C15.298 1.28231 16.0703 1.60204 16.6399 2.17123C17.2095 2.74043 17.5299 3.51251 17.5305 4.31778C17.5311 5.12305 17.2119 5.89561 16.6432 6.46567C16.0744 7.03573 15.3026 7.35664 14.4973 7.35786H14.4924C13.892 7.35786 13.305 7.17995 12.8057 6.84659C12.3063 6.51323 11.917 6.03937 11.6868 5.48486C11.4565 4.93036 11.3958 4.32006 11.5122 3.73106C11.6287 3.14206 11.917 2.60076 12.3409 2.17554Z" fill="white"/>
<path d="M14.4922 7.06622V7.35789L14.4942 7.06616L14.4922 7.06622Z" fill="white"/>
</svg>
