<svg width="40" height="48" viewBox="0 0 40 48" fill="none" xmlns="http://www.w3.org/2000/svg">
<path d="M36 8H4C1.8 8 0 9.8 0 12V36C0 38.2 1.8 40 4 40H36C38.2 40 40 38.2 40 36V12C40 9.8 38.2 8 36 8ZM36 36H4V12H36V36ZM4 0H36V4H4V0ZM4 44H36V48H4V44ZM20 24C22.76 24 25 21.76 25 19C25 16.24 22.76 14 20 14C17.24 14 15 16.24 15 19C15 21.76 17.24 24 20 24ZM20 17C21.1 17 22 17.9 22 19C22 20.1 21.1 21 20 21C18.9 21 18 20.1 18 19C18 17.9 18.9 17 20 17ZM30 31.98C30 27.8 23.38 26 20 26C16.62 26 10 27.8 10 31.98V34H30V31.98ZM13.62 31C14.84 29.96 17.68 29 20 29C22.34 29 25.18 29.96 26.4 31H13.62Z" fill="#FABC45"/>
</svg>
