<svg width="31" height="31" viewBox="0 0 31 31" fill="none" xmlns="http://www.w3.org/2000/svg">
<g filter="url(#filter0_d_2_1418)">
<path d="M15.615 18.1988C15.9217 18.1988 16.1804 18.0933 16.3912 17.8825C16.6021 17.6717 16.7075 17.4129 16.7075 17.1062C16.7075 16.7996 16.6021 16.5408 16.3912 16.33C16.1804 16.1192 15.9217 16.0138 15.615 16.0138C15.3083 16.0138 15.0496 16.1192 14.8387 16.33C14.6279 16.5408 14.5225 16.7996 14.5225 17.1062C14.5225 17.4129 14.6279 17.6717 14.8387 17.8825C15.0496 18.0933 15.3083 18.1988 15.615 18.1988ZM14.6088 14.0013H16.305C16.305 13.5029 16.3673 13.0477 16.4919 12.6356C16.6165 12.2235 17.0046 11.7492 17.6562 11.2125C18.2504 10.7142 18.6721 10.2254 18.9213 9.74625C19.1704 9.26708 19.295 8.74 19.295 8.165C19.295 7.14917 18.9644 6.33458 18.3031 5.72125C17.6419 5.10792 16.765 4.80125 15.6725 4.80125C14.7333 4.80125 13.9044 5.03604 13.1856 5.50562C12.4669 5.97521 11.9446 6.62208 11.6187 7.44625L13.1425 8.02125C13.3533 7.48458 13.6696 7.06771 14.0912 6.77062C14.5129 6.47354 15.0112 6.325 15.5862 6.325C16.2379 6.325 16.765 6.50229 17.1675 6.85687C17.57 7.21146 17.7712 7.66667 17.7712 8.2225C17.7712 8.64417 17.6467 9.04187 17.3975 9.41562C17.1483 9.78937 16.7842 10.1775 16.305 10.58C15.73 11.0783 15.3035 11.5719 15.0256 12.0606C14.7477 12.5494 14.6088 13.1962 14.6088 14.0013ZM15.5 23C13.9283 23 12.4429 22.6981 11.0437 22.0944C9.64458 21.4906 8.42271 20.6665 7.37812 19.6219C6.33354 18.5773 5.50937 17.3554 4.90562 15.9562C4.30187 14.5571 4 13.0717 4 11.5C4 9.90917 4.30187 8.41417 4.90562 7.015C5.50937 5.61583 6.33354 4.39875 7.37812 3.36375C8.42271 2.32875 9.64458 1.50937 11.0437 0.905625C12.4429 0.301875 13.9283 0 15.5 0C17.0908 0 18.5858 0.301875 19.985 0.905625C21.3842 1.50937 22.6012 2.32875 23.6362 3.36375C24.6713 4.39875 25.4906 5.61583 26.0944 7.015C26.6981 8.41417 27 9.90917 27 11.5C27 13.0717 26.6981 14.5571 26.0944 15.9562C25.4906 17.3554 24.6713 18.5773 23.6362 19.6219C22.6012 20.6665 21.3842 21.4906 19.985 22.0944C18.5858 22.6981 17.0908 23 15.5 23ZM15.5 21.275C18.2217 21.275 20.5312 20.3215 22.4287 18.4144C24.3262 16.5073 25.275 14.2025 25.275 11.5C25.275 8.77833 24.3262 6.46875 22.4287 4.57125C20.5312 2.67375 18.2217 1.725 15.5 1.725C12.7975 1.725 10.4927 2.67375 8.58563 4.57125C6.67854 6.46875 5.725 8.77833 5.725 11.5C5.725 14.2025 6.67854 16.5073 8.58563 18.4144C10.4927 20.3215 12.7975 21.275 15.5 21.275Z" fill="white" fill-opacity="0.75" shape-rendering="crispEdges"/>
</g>
<defs>
<filter id="filter0_d_2_1418" x="0" y="0" width="31" height="31" filterUnits="userSpaceOnUse" color-interpolation-filters="sRGB">
<feFlood flood-opacity="0" result="BackgroundImageFix"/>
<feColorMatrix in="SourceAlpha" type="matrix" values="0 0 0 0 0 0 0 0 0 0 0 0 0 0 0 0 0 0 127 0" result="hardAlpha"/>
<feOffset dy="4"/>
<feGaussianBlur stdDeviation="2"/>
<feComposite in2="hardAlpha" operator="out"/>
<feColorMatrix type="matrix" values="0 0 0 0 0 0 0 0 0 0 0 0 0 0 0 0 0 0 0.25 0"/>
<feBlend mode="normal" in2="BackgroundImageFix" result="effect1_dropShadow_2_1418"/>
<feBlend mode="normal" in="SourceGraphic" in2="effect1_dropShadow_2_1418" result="shape"/>
</filter>
</defs>
</svg>
