<svg width="28" height="34" viewBox="0 0 28 34" fill="none" xmlns="http://www.w3.org/2000/svg">
<path d="M17.7013 21.2258C23.6267 21.2258 27.8984 17.0919 27.8984 10.9369C27.8984 4.78192 23.6267 0.785767 17.7013 0.785767H5.6038C5.1241 0.785767 4.73518 1.17469 4.73518 1.65439V17.2756H0.971159C0.491463 17.2756 0.102539 17.6645 0.102539 18.1442V20.3571C0.102539 20.8368 0.491463 21.2258 0.971159 21.2258H4.73518V23.949H0.971159C0.491463 23.949 0.102539 24.3379 0.102539 24.8176V26.5548C0.102539 27.0345 0.491463 27.4234 0.971159 27.4234H4.73518V32.3456C4.73518 32.8253 5.1241 33.2142 5.6038 33.2142H8.49919C8.97889 33.2142 9.36781 32.8253 9.36781 32.3456V27.4234H22.3971C22.8768 27.4234 23.2657 27.0345 23.2657 26.5548V24.8176C23.2657 24.3379 22.8768 23.949 22.3971 23.949H9.36781V21.2258H17.7013ZM9.36781 4.73596H17.0124C20.8707 4.73596 23.2593 7.03259 23.2593 10.9369C23.2593 14.8412 20.8707 17.2756 16.9665 17.2756H9.36781V4.73596Z" fill="#FF4654"/>
</svg>
