<svg width="43" height="40" viewBox="0 0 43 40" fill="none" xmlns="http://www.w3.org/2000/svg">
<path d="M16.9996 22C18.0996 22 18.9996 22.9 18.9996 24C18.9996 25.1 18.0996 26 16.9996 26C15.8996 26 14.9996 25.1 14.9996 24C14.9996 22.9 15.8996 22 16.9996 22ZM16.9996 18C13.6796 18 10.9996 20.68 10.9996 24C10.9996 27.32 13.6796 30 16.9996 30C20.3196 30 22.9996 27.32 22.9996 24C22.9996 20.68 20.3196 18 16.9996 18ZM33.9996 14L36.1796 9.18L40.9996 7L36.1796 4.82L33.9996 0L31.8196 4.82L26.9996 7L31.8196 9.18L33.9996 14ZM39.5597 21.44L37.9996 18L36.4396 21.44L32.9996 23L36.4396 24.56L37.9996 28L39.5597 24.56L42.9996 23L39.5597 21.44ZM29.4996 24C29.4996 23.76 29.4996 23.5 29.4796 23.26L33.3596 20.32L28.3596 11.66L23.8796 13.54C23.4796 13.28 23.0396 13.02 22.5996 12.8L21.9996 8H11.9996L11.3996 12.82C10.9596 13.04 10.5396 13.3 10.1196 13.56L5.63965 11.66L0.639648 20.32L4.51965 23.26C4.49965 23.5 4.49965 23.76 4.49965 24C4.49965 24.24 4.49965 24.5 4.51965 24.74L0.639648 27.68L5.63965 36.34L10.1196 34.46C10.5196 34.72 10.9596 34.98 11.3996 35.2L11.9996 40H21.9996L22.5996 35.18C23.0396 34.96 23.4596 34.72 23.8796 34.44L28.3596 36.32L33.3596 27.66L29.4796 24.72C29.4996 24.5 29.4996 24.24 29.4996 24ZM26.6596 31.28L23.1996 29.82C22.0796 31.02 20.5996 31.9 18.9396 32.28L18.4596 36H15.5396L15.0796 32.28C13.4196 31.9 11.9396 31.02 10.8196 29.82L7.35965 31.28L5.89965 28.74L8.87965 26.48C8.63965 25.7 8.51965 24.88 8.51965 24.02C8.51965 23.16 8.63965 22.34 8.87965 21.56L5.89965 19.3L7.35965 16.76L10.8196 18.22C11.9396 17.02 13.4196 16.14 15.0796 15.76L15.5396 12H18.4796L18.9396 15.72C20.5996 16.1 22.0796 16.98 23.1996 18.18L26.6596 16.72L28.1196 19.26L25.1396 21.52C25.3796 22.3 25.4996 23.12 25.4996 23.98C25.4996 24.84 25.3796 25.66 25.1396 26.44L28.1196 28.7L26.6596 31.28Z" fill="#FABC45"/>
</svg>
