<svg width="40" height="29" viewBox="0 0 40 29" fill="none" xmlns="http://www.w3.org/2000/svg">
<path d="M6 12.5381C8.20625 12.5381 10 10.7444 10 8.53815C10 6.3319 8.20625 4.53815 6 4.53815C3.79375 4.53815 2 6.3319 2 8.53815C2 10.7444 3.79375 12.5381 6 12.5381ZM34 12.5381C36.2062 12.5381 38 10.7444 38 8.53815C38 6.3319 36.2062 4.53815 34 4.53815C31.7938 4.53815 30 6.3319 30 8.53815C30 10.7444 31.7938 12.5381 34 12.5381ZM36 14.5381H32C30.9 14.5381 29.9062 14.9819 29.1812 15.7006C31.7 17.0819 33.4875 19.5756 33.875 22.5381H38C39.1063 22.5381 40 21.6444 40 20.5381V18.5381C40 16.3319 38.2062 14.5381 36 14.5381ZM20 14.5381C23.8687 14.5381 27 11.4069 27 7.53815C27 3.6694 23.8687 0.538147 20 0.538147C16.1313 0.538147 13 3.6694 13 7.53815C13 11.4069 16.1313 14.5381 20 14.5381ZM24.8 16.5381H24.2812C22.9813 17.1631 21.5375 17.5381 20 17.5381C18.4625 17.5381 17.025 17.1631 15.7188 16.5381H15.2C11.225 16.5381 8 19.7631 8 23.7381V25.5382C8 27.1944 9.34375 28.5382 11 28.5382H29C30.6562 28.5382 32 27.1944 32 25.5382V23.7381C32 19.7631 28.775 16.5381 24.8 16.5381ZM10.8188 15.7006C10.0938 14.9819 9.1 14.5381 8 14.5381H4C1.79375 14.5381 0 16.3319 0 18.5381V20.5381C0 21.6444 0.89375 22.5381 2 22.5381H6.11875C6.5125 19.5756 8.3 17.0819 10.8188 15.7006Z" fill="#FF4654"/>
</svg>
