<svg width="86" height="86" viewBox="0 0 86 86" fill="none" xmlns="http://www.w3.org/2000/svg">
<path d="M47.8134 38.2178L45.9175 43L47.8134 47.7822L43.0312 45.8863L38.249 47.7822L40.1449 43L38.249 38.2178L43.0312 40.1137L47.8134 38.2178Z" fill="#FF4654"/>
<path d="M51.8418 42.9999L45.5578 45.7159L42.8418 51.9999L40.1258 45.7159L33.8418 42.9999L40.1258 40.284L42.8418 33.9999L45.5578 40.284L51.8418 42.9999Z" fill="#FF4654"/>
<path d="M59.2002 23.559C59.0477 23.5613 58.8979 23.5627 58.7551 23.5627C57.4289 23.5627 56.4288 23.452 55.6228 23.232C55.1971 22.8138 54.968 22.3154 54.9468 21.7411L54.9398 21.5495L54.8087 21.6896C54.0807 22.4674 52.358 22.9506 50.3119 22.9506C49.6077 22.9506 48.9208 22.8924 48.2704 22.7774C46.2498 22.4202 43.6836 20.9369 42.9078 18.8918L42.8333 18.6948L42.7587 18.8918C41.983 20.9369 39.4169 22.4202 37.3961 22.7774C36.7467 22.8921 36.0609 22.9503 35.3577 22.9503C34.7957 22.9503 34.2457 22.9126 33.7235 22.838L33.7226 22.8379C32.3907 22.6479 31.3735 22.2403 30.8582 21.6896L30.7271 21.5495L30.7201 21.7411C30.6988 22.3176 30.4687 22.8182 30.0393 23.2376C29.2365 23.4538 28.242 23.5627 26.9271 23.5627C26.7843 23.5627 26.6345 23.5613 26.4821 23.559L26.3008 23.556L26.3209 23.7362C26.7476 27.5931 26.896 34.4253 26.9944 38.9465C27.0368 40.8933 27.0702 42.4309 27.1127 43.119L27.1819 43.1169V59.2731C27.1819 60.0559 27.8838 61.1292 29.1849 61.5767C29.8852 61.8175 31.0391 62.1789 32.2609 62.5618C32.7173 62.7047 33.1889 62.8524 33.659 63.0008L33.6868 63.0096C34.9327 63.4028 35.8068 63.6867 36.5211 63.9298C39.1357 64.8196 42.2123 66.2648 42.7648 67.1904L42.8329 67.3051L42.9015 67.1901C43.4539 66.2645 46.5306 64.8192 49.1452 63.9295C50.3787 63.5098 51.9875 63.0059 53.4069 62.5611C54.6281 62.1786 55.7814 61.8175 56.4813 61.5767C57.7821 61.1292 58.484 60.0559 58.484 59.2731V43.1164L58.5696 43.119C58.612 42.4309 58.6454 40.8933 58.6879 38.9465C58.7863 34.4256 58.9347 27.5931 59.3614 23.7362L59.3815 23.556L59.2002 23.559ZM55.484 58.7472C54.8246 58.9733 53.7101 59.3224 52.531 59.6918L52.4913 59.7042C51.0618 60.1521 49.4416 60.6598 48.1787 61.0894C46.709 61.5896 44.5617 62.4121 42.833 63.4478C41.1044 62.4124 38.9573 61.5899 37.4877 61.0898C36.7471 60.8377 35.8533 60.5474 34.596 60.1506L34.5651 60.1409L34.562 60.1399L33.229 59.7213L33.1404 59.6935C31.9591 59.3234 30.8426 58.9735 30.182 58.7471V26.6818C30.5141 26.535 30.8289 26.3684 31.1202 26.184C31.4282 25.9892 31.711 25.7753 31.9675 25.5443C32.3847 25.6529 32.8287 25.7408 33.2989 25.8078L33.3364 25.8132L33.3385 25.8134C33.9886 25.9043 34.6678 25.9503 35.3577 25.9503C36.2354 25.9503 37.0968 25.8767 37.9182 25.7316C39.4961 25.4527 41.3184 24.6958 42.8331 23.5107C44.3478 24.6957 46.17 25.4527 47.7478 25.7315C48.5696 25.8769 49.4323 25.9506 50.3119 25.9506C51.1918 25.9506 52.4456 25.8759 53.7023 25.547C53.9578 25.7769 54.2396 25.9898 54.5461 26.1839C54.8374 26.3682 55.1521 26.5348 55.484 26.6816V58.7472Z" fill="#FF4654"/>
</svg>
